<svg xmlns="http://www.w3.org/2000/svg" xmlns:xlink="http://www.w3.org/1999/xlink" width="420" zoomAndPan="magnify" viewBox="0 0 315 195.000001" height="260" preserveAspectRatio="xMidYMid meet" version="1.0"><defs><g/><clipPath id="46a27f753b"><path d="M 0.804688 54.046875 L 176.15625 54.046875 L 176.15625 124.933594 L 0.804688 124.933594 Z M 0.804688 54.046875 " clip-rule="nonzero"/></clipPath><clipPath id="c751cc0435"><path d="M 165 66.640625 L 314.109375 66.640625 L 314.109375 118.875 L 165 118.875 Z M 165 66.640625 " clip-rule="nonzero"/></clipPath></defs><g fill="#3d3b3a" fill-opacity="1"><g transform="translate(84.450035, 81.61843)"><g><path d="M -3.5625 -7.0625 C -3.207031 -7.550781 -2.785156 -7.90625 -2.296875 -8.125 C -1.816406 -8.34375 -1.3125 -8.382812 -0.78125 -8.25 C -0.15625 -8.09375 0.316406 -7.8125 0.640625 -7.40625 C 0.972656 -7 1.171875 -6.523438 1.234375 -5.984375 C 1.304688 -5.441406 1.265625 -4.878906 1.109375 -4.296875 L 0.359375 -1.40625 L -9.375 -3.921875 L -8.71875 -6.4375 C -8.457031 -7.4375 -8.050781 -8.15625 -7.5 -8.59375 C -6.957031 -9.039062 -6.28125 -9.160156 -5.46875 -8.953125 C -4.945312 -8.816406 -4.53125 -8.582031 -4.21875 -8.25 C -3.90625 -7.925781 -3.6875 -7.53125 -3.5625 -7.0625 Z M -4.78125 -4.125 L -4.40625 -5.609375 C -4.269531 -6.117188 -4.3125 -6.535156 -4.53125 -6.859375 C -4.757812 -7.191406 -5.09375 -7.414062 -5.53125 -7.53125 C -6.03125 -7.65625 -6.441406 -7.59375 -6.765625 -7.34375 C -7.085938 -7.101562 -7.316406 -6.710938 -7.453125 -6.171875 L -7.78125 -4.890625 Z M -0.109375 -4.5625 C 0.0351562 -5.125 0.03125 -5.625 -0.125 -6.0625 C -0.289062 -6.5 -0.617188 -6.78125 -1.109375 -6.90625 C -1.628906 -7.039062 -2.0625 -6.9375 -2.40625 -6.59375 C -2.75 -6.257812 -2.992188 -5.804688 -3.140625 -5.234375 L -3.515625 -3.796875 L -0.5 -3.015625 Z M -0.109375 -4.5625 "/></g></g></g><g fill="#3d3b3a" fill-opacity="1"><g transform="translate(87.939508, 69.701019)"><g><path d="M -8.28125 -6.375 L 1.046875 -2.59375 L 0.546875 -1.34375 L -8.78125 -5.125 Z M -8.28125 -6.375 "/></g></g></g><g fill="#3d3b3a" fill-opacity="1"><g transform="translate(91.046119, 62.275047)"><g><path d="M 3.46875 -6.0625 L -0.921875 -5.859375 C -0.953125 -5.796875 -1.007812 -5.695312 -1.09375 -5.5625 L -1.828125 -4.265625 L 1.390625 -2.421875 L 0.71875 -1.265625 L -8.015625 -6.265625 L -6.671875 -8.59375 C -6.328125 -9.1875 -5.914062 -9.65625 -5.4375 -10 C -4.96875 -10.351562 -4.453125 -10.546875 -3.890625 -10.578125 C -3.335938 -10.617188 -2.773438 -10.472656 -2.203125 -10.140625 C -1.660156 -9.828125 -1.226562 -9.421875 -0.90625 -8.921875 C -0.59375 -8.429688 -0.460938 -7.875 -0.515625 -7.25 L 4.265625 -7.421875 Z M -2.21875 -6.203125 C -1.863281 -6.828125 -1.769531 -7.367188 -1.9375 -7.828125 C -2.113281 -8.296875 -2.414062 -8.648438 -2.84375 -8.890625 C -3.101562 -9.046875 -3.390625 -9.132812 -3.703125 -9.15625 C -4.015625 -9.1875 -4.328125 -9.117188 -4.640625 -8.953125 C -4.953125 -8.796875 -5.21875 -8.523438 -5.4375 -8.140625 L -6.21875 -6.78125 L -2.953125 -4.921875 Z M -2.21875 -6.203125 "/></g></g></g><g fill="#3d3b3a" fill-opacity="1"><g transform="translate(97.715434, 51.228932)"><g><path d="M 5.046875 -7.3125 C 4.992188 -6.925781 4.878906 -6.484375 4.703125 -5.984375 C 4.523438 -5.484375 4.253906 -5.003906 3.890625 -4.546875 C 3.234375 -3.753906 2.476562 -3.195312 1.625 -2.875 C 0.78125 -2.5625 -0.0664062 -2.488281 -0.921875 -2.65625 C -1.785156 -2.820312 -2.578125 -3.203125 -3.296875 -3.796875 C -4.066406 -4.429688 -4.617188 -5.164062 -4.953125 -6 C -5.296875 -6.832031 -5.398438 -7.679688 -5.265625 -8.546875 C -5.128906 -9.410156 -4.753906 -10.210938 -4.140625 -10.953125 C -3.785156 -11.390625 -3.394531 -11.75 -2.96875 -12.03125 C -2.550781 -12.3125 -2.125 -12.53125 -1.6875 -12.6875 L -1.046875 -11.453125 C -1.929688 -11.179688 -2.625 -10.75 -3.125 -10.15625 C -3.53125 -9.65625 -3.78125 -9.082031 -3.875 -8.4375 C -3.96875 -7.800781 -3.890625 -7.164062 -3.640625 -6.53125 C -3.390625 -5.90625 -2.992188 -5.367188 -2.453125 -4.921875 C -1.890625 -4.453125 -1.289062 -4.144531 -0.65625 -4 C -0.0195312 -3.863281 0.601562 -3.910156 1.21875 -4.140625 C 1.832031 -4.367188 2.375 -4.765625 2.84375 -5.328125 C 3.414062 -6.023438 3.71875 -6.789062 3.75 -7.625 Z M 5.046875 -7.3125 "/></g></g></g><g fill="#3d3b3a" fill-opacity="1"><g transform="translate(106.419015, 41.112833)"><g><path d="M 7.203125 -6.078125 L 6.171875 -5.21875 L 3.328125 -8.578125 L -0.703125 -5.171875 L 2.140625 -1.8125 L 1.109375 -0.9375 L -5.390625 -8.625 L -4.359375 -9.5 L -1.546875 -6.171875 L 2.484375 -9.578125 L -0.328125 -12.90625 L 0.703125 -13.765625 Z M 7.203125 -6.078125 "/></g></g></g><g fill="#3d3b3a" fill-opacity="1"><g transform="translate(117.915731, 32.074362)"><g/></g></g><g fill="#3d3b3a" fill-opacity="1"><g transform="translate(124.915281, 27.814695)"><g><path d="M 7.140625 -3.125 L 5.953125 -3.8125 C 5.816406 -3.34375 5.570312 -2.90625 5.21875 -2.5 C 4.863281 -2.09375 4.40625 -1.769531 3.84375 -1.53125 C 3.257812 -1.269531 2.679688 -1.15625 2.109375 -1.1875 C 1.546875 -1.226562 1.039062 -1.394531 0.59375 -1.6875 C 0.15625 -1.976562 -0.175781 -2.390625 -0.40625 -2.921875 C -0.59375 -3.347656 -0.660156 -3.789062 -0.609375 -4.25 C -0.554688 -4.71875 -0.398438 -5.164062 -0.140625 -5.59375 C 0.109375 -6.03125 0.425781 -6.398438 0.8125 -6.703125 L 0.171875 -7.0625 C -0.546875 -7.5 -1.015625 -7.96875 -1.234375 -8.46875 C -1.390625 -8.832031 -1.441406 -9.21875 -1.390625 -9.625 C -1.347656 -10.03125 -1.195312 -10.40625 -0.9375 -10.75 C -0.675781 -11.09375 -0.316406 -11.363281 0.140625 -11.5625 C 0.597656 -11.757812 1.066406 -11.851562 1.546875 -11.84375 C 2.023438 -11.84375 2.46875 -11.757812 2.875 -11.59375 L 2.625 -10.5 C 1.832031 -10.757812 1.210938 -10.796875 0.765625 -10.609375 C 0.421875 -10.453125 0.179688 -10.210938 0.046875 -9.890625 C -0.078125 -9.578125 -0.0664062 -9.257812 0.078125 -8.9375 C 0.210938 -8.632812 0.515625 -8.335938 0.984375 -8.046875 L 4.875 -5.84375 L 4.71875 -8.53125 L 5.875 -9.03125 L 6.015625 -5.1875 L 8.59375 -3.75 Z M 3.484375 -2.703125 C 3.898438 -2.878906 4.222656 -3.113281 4.453125 -3.40625 C 4.691406 -3.707031 4.835938 -4.035156 4.890625 -4.390625 L 1.875 -6.109375 C 1.5625 -5.941406 1.300781 -5.71875 1.09375 -5.4375 C 0.894531 -5.164062 0.769531 -4.859375 0.71875 -4.515625 C 0.675781 -4.179688 0.722656 -3.851562 0.859375 -3.53125 C 1.066406 -3.0625 1.421875 -2.742188 1.921875 -2.578125 C 2.429688 -2.421875 2.953125 -2.460938 3.484375 -2.703125 Z M 3.484375 -2.703125 "/></g></g></g><g fill="#3d3b3a" fill-opacity="1"><g transform="translate(137.806045, 22.69293)"><g/></g></g><g fill="#3d3b3a" fill-opacity="1"><g transform="translate(145.761576, 20.618785)"><g><path d="M 5.4375 -9.125 C 5.039062 -9.269531 4.632812 -9.367188 4.21875 -9.421875 C 3.800781 -9.484375 3.410156 -9.488281 3.046875 -9.4375 C 2.503906 -9.351562 2.09375 -9.171875 1.8125 -8.890625 C 1.53125 -8.609375 1.414062 -8.253906 1.46875 -7.828125 C 1.53125 -7.421875 1.765625 -7.109375 2.171875 -6.890625 C 2.585938 -6.679688 3.160156 -6.492188 3.890625 -6.328125 C 4.429688 -6.222656 4.890625 -6.085938 5.265625 -5.921875 C 5.648438 -5.753906 5.984375 -5.492188 6.265625 -5.140625 C 6.554688 -4.796875 6.742188 -4.328125 6.828125 -3.734375 C 6.910156 -3.210938 6.847656 -2.71875 6.640625 -2.25 C 6.429688 -1.78125 6.097656 -1.382812 5.640625 -1.0625 C 5.191406 -0.75 4.632812 -0.546875 3.96875 -0.453125 C 3.351562 -0.359375 2.75 -0.367188 2.15625 -0.484375 C 1.5625 -0.609375 1.023438 -0.789062 0.546875 -1.03125 L 0.984375 -2.171875 C 1.359375 -1.960938 1.796875 -1.800781 2.296875 -1.6875 C 2.804688 -1.570312 3.269531 -1.546875 3.6875 -1.609375 C 4.207031 -1.679688 4.648438 -1.882812 5.015625 -2.21875 C 5.378906 -2.5625 5.519531 -3.003906 5.4375 -3.546875 C 5.375 -4.003906 5.15625 -4.34375 4.78125 -4.5625 C 4.414062 -4.789062 3.914062 -4.976562 3.28125 -5.125 C 2.6875 -5.257812 2.1875 -5.398438 1.78125 -5.546875 C 1.382812 -5.703125 1.023438 -5.9375 0.703125 -6.25 C 0.390625 -6.5625 0.191406 -6.984375 0.109375 -7.515625 C 0.00390625 -8.304688 0.191406 -8.976562 0.671875 -9.53125 C 1.148438 -10.09375 1.820312 -10.453125 2.6875 -10.609375 C 3.757812 -10.765625 4.796875 -10.632812 5.796875 -10.21875 Z M 5.4375 -9.125 "/></g></g></g><g fill="#3d3b3a" fill-opacity="1"><g transform="translate(157.53399, 19.243933)"><g><path d="M 7.515625 -9.96875 L 7.5 -8.671875 L 4.796875 -8.703125 L 4.6875 0.0625 L 3.34375 0.046875 L 3.453125 -8.71875 L 0.8125 -8.75 L 0.828125 -10.046875 Z M 7.515625 -9.96875 "/></g></g></g><g fill="#3d3b3a" fill-opacity="1"><g transform="translate(169.364434, 19.648247)"><g><path d="M 9.59375 -8.5625 L 9.375 -7.28125 L 4.25 -8.171875 L 3.71875 -5.15625 L 8.296875 -4.359375 L 8.078125 -3.078125 L 3.5 -3.875 L 2.96875 -0.828125 L 8.28125 0.09375 L 8.0625 1.390625 L 1.4375 0.25 L 3.15625 -9.671875 Z M 9.59375 -8.5625 "/></g></g></g><g fill="#3d3b3a" fill-opacity="1"><g transform="translate(181.92578, 22.131092)"><g><path d="M 6.59375 2.3125 L 5.59375 -1.984375 C 5.519531 -1.992188 5.410156 -2.023438 5.265625 -2.078125 L 3.859375 -2.578125 L 2.640625 0.921875 L 1.375 0.484375 L 4.703125 -9.015625 L 7.234375 -8.125 C 7.878906 -7.90625 8.414062 -7.59375 8.84375 -7.1875 C 9.28125 -6.78125 9.5625 -6.300781 9.6875 -5.75 C 9.820312 -5.207031 9.78125 -4.628906 9.5625 -4.015625 C 9.351562 -3.421875 9.03125 -2.925781 8.59375 -2.53125 C 8.164062 -2.132812 7.644531 -1.894531 7.03125 -1.8125 L 8.078125 2.828125 Z M 5.6875 -3.328125 C 6.363281 -3.085938 6.914062 -3.09375 7.34375 -3.34375 C 7.769531 -3.59375 8.066406 -3.945312 8.234375 -4.40625 C 8.328125 -4.695312 8.359375 -5 8.328125 -5.3125 C 8.296875 -5.632812 8.171875 -5.929688 7.953125 -6.203125 C 7.742188 -6.472656 7.425781 -6.679688 7 -6.828125 L 5.53125 -7.34375 L 4.296875 -3.8125 Z M 5.6875 -3.328125 "/></g></g></g><g fill="#3d3b3a" fill-opacity="1"><g transform="translate(194.00309, 26.700319)"><g><path d="M 7.28125 -7.484375 L 3.078125 0.1875 L 7.578125 2.640625 L 6.953125 3.796875 L 1.28125 0.703125 L 6.109375 -8.125 Z M 7.28125 -7.484375 "/></g></g></g><g fill="#3d3b3a" fill-opacity="1"><g transform="translate(204.73917, 33.016583)"><g><path d="M 8.1875 -6.46875 L 2.25 1.65625 L 1.171875 0.859375 L 7.109375 -7.265625 Z M 8.1875 -6.46875 "/></g></g></g><g fill="#3d3b3a" fill-opacity="1"><g transform="translate(211.208742, 37.756085)"><g><path d="M 14.34375 0.0625 L 7.015625 7.4375 L 6.96875 7.40625 L 7.03125 -3.109375 L 2 1.984375 L 1.03125 1.03125 L 8.34375 -6.328125 L 8.390625 -6.296875 L 8.265625 4.296875 L 13.390625 -0.875 Z M 14.34375 0.0625 "/></g></g></g><g fill="#3d3b3a" fill-opacity="1"><g transform="translate(221.780621, 48.842095)"><g><path d="M 5.96875 7.234375 C 5.59375 7.109375 5.140625 6.832031 4.609375 6.40625 C 4.078125 5.988281 3.648438 5.546875 3.328125 5.078125 C 2.742188 4.222656 2.40625 3.34375 2.3125 2.4375 C 2.21875 1.53125 2.359375 0.691406 2.734375 -0.078125 C 3.117188 -0.859375 3.695312 -1.515625 4.46875 -2.046875 C 5.375 -2.660156 6.285156 -3 7.203125 -3.0625 C 8.128906 -3.132812 8.988281 -2.96875 9.78125 -2.5625 C 10.582031 -2.15625 11.25 -1.566406 11.78125 -0.796875 C 12.09375 -0.328125 12.332031 0.148438 12.5 0.640625 C 12.675781 1.140625 12.785156 1.617188 12.828125 2.078125 L 11.5625 2.390625 C 11.53125 2.054688 11.441406 1.664062 11.296875 1.21875 C 11.148438 0.78125 10.972656 0.414062 10.765625 0.125 C 10.328125 -0.519531 9.804688 -1 9.203125 -1.3125 C 8.597656 -1.632812 7.960938 -1.765625 7.296875 -1.703125 C 6.640625 -1.648438 5.988281 -1.40625 5.34375 -0.96875 C 4.75 -0.5625 4.304688 -0.0625 4.015625 0.53125 C 3.734375 1.125 3.628906 1.753906 3.703125 2.421875 C 3.773438 3.085938 4.023438 3.734375 4.453125 4.359375 C 4.648438 4.648438 4.875 4.910156 5.125 5.140625 C 5.375 5.378906 5.617188 5.554688 5.859375 5.671875 L 7.515625 4.546875 L 6.375 2.890625 L 7.421875 2.171875 L 9.328125 4.953125 Z M 5.96875 7.234375 "/></g></g></g><g fill="#3d3b3a" fill-opacity="1"><g transform="translate(229.383907, 60.870275)"><g/></g></g><g fill="#3d3b3a" fill-opacity="1"><g transform="translate(232.825535, 68.395335)"><g/></g></g><g fill="#3d3b3a" fill-opacity="1"><g transform="translate(235.446397, 76.244063)"><g/></g></g><g fill="#3d3b3a" fill-opacity="1"><g transform="translate(237.216656, 84.327243)"><g/></g></g><g fill="#3d3b3a" fill-opacity="1"><g transform="translate(238.216351, 92.467525)"><g><path d="M -0.015625 6.984375 L 3.703125 4.640625 C 3.691406 4.566406 3.6875 4.453125 3.6875 4.296875 L 3.703125 2.8125 L 0 2.796875 L 0 1.453125 L 10.0625 1.484375 L 10.046875 4.171875 C 10.046875 4.859375 9.925781 5.46875 9.6875 6 C 9.445312 6.539062 9.09375 6.960938 8.625 7.265625 C 8.15625 7.566406 7.59375 7.71875 6.9375 7.71875 C 6.3125 7.71875 5.738281 7.578125 5.21875 7.296875 C 4.695312 7.023438 4.300781 6.609375 4.03125 6.046875 L -0.015625 8.5625 Z M 5 4.28125 C 5 5 5.1875 5.519531 5.5625 5.84375 C 5.945312 6.164062 6.382812 6.328125 6.875 6.328125 C 7.175781 6.328125 7.46875 6.257812 7.75 6.125 C 8.039062 5.988281 8.28125 5.773438 8.46875 5.484375 C 8.65625 5.191406 8.75 4.820312 8.75 4.375 L 8.765625 2.8125 L 5.015625 2.8125 Z M 5 4.28125 "/></g></g></g><g fill="#3d3b3a" fill-opacity="1"><g transform="translate(237.871055, 105.367311)"><g><path d="M 8.578125 9.5625 L 7.296875 9.34375 L 8.171875 4.21875 L 5.15625 3.703125 L 4.375 8.28125 L 3.09375 8.0625 L 3.875 3.484375 L 0.828125 2.96875 L -0.078125 8.296875 L -1.375 8.078125 L -0.25 1.4375 L 9.671875 3.125 Z M 8.578125 9.5625 "/></g></g></g><g fill="#3d3b3a" fill-opacity="1"><g transform="translate(235.446346, 117.935497)"><g><path d="M 0.265625 7.21875 L 1.53125 3.578125 L -0.59375 1.6875 L -0.15625 0.421875 L 8.28125 8.046875 L 8.265625 8.109375 L -3.09375 8.796875 L -2.578125 7.328125 Z M 1.515625 7.171875 L 5.46875 7.046875 L 2.484375 4.421875 Z M 1.515625 7.171875 "/></g></g></g><g fill="#3d3b3a" fill-opacity="1"><g transform="translate(230.654358, 130.524581)"><g><path d="M 7.46875 7.3125 L -0.1875 3.09375 L -2.671875 7.578125 L -3.828125 6.9375 L -0.703125 1.265625 L 8.109375 6.125 Z M 7.46875 7.3125 "/></g></g></g><g fill="#3d3b3a" fill-opacity="1"><g transform="translate(224.299152, 141.236217)"><g/></g></g><g fill="#3d3b3a" fill-opacity="1"><g transform="translate(219.339417, 147.770245)"><g><path d="M 1.625 12.75 L 0.703125 11.84375 L 4.328125 8.125 L 2.125 5.984375 L -1.109375 9.3125 L -2.03125 8.40625 L 1.203125 5.078125 L -1.015625 2.921875 L -4.78125 6.78125 L -5.71875 5.859375 L -1.015625 1.046875 L 6.1875 8.078125 Z M 1.625 12.75 "/></g></g></g><g fill="#3d3b3a" fill-opacity="1"><g transform="translate(210.148128, 156.711383)"><g><path d="M -0.421875 10.609375 C -0.00390625 10.546875 0.398438 10.441406 0.796875 10.296875 C 1.203125 10.148438 1.550781 9.96875 1.84375 9.75 C 2.28125 9.414062 2.550781 9.054688 2.65625 8.671875 C 2.769531 8.296875 2.695312 7.9375 2.4375 7.59375 C 2.1875 7.257812 1.832031 7.097656 1.375 7.109375 C 0.925781 7.117188 0.34375 7.226562 -0.375 7.4375 C -0.90625 7.59375 -1.378906 7.6875 -1.796875 7.71875 C -2.210938 7.75 -2.628906 7.679688 -3.046875 7.515625 C -3.472656 7.359375 -3.863281 7.039062 -4.21875 6.5625 C -4.53125 6.132812 -4.707031 5.664062 -4.75 5.15625 C -4.800781 4.644531 -4.703125 4.140625 -4.453125 3.640625 C -4.203125 3.140625 -3.804688 2.691406 -3.265625 2.296875 C -2.765625 1.921875 -2.226562 1.640625 -1.65625 1.453125 C -1.082031 1.273438 -0.523438 1.179688 0.015625 1.171875 L 0.171875 2.390625 C -0.253906 2.378906 -0.71875 2.441406 -1.21875 2.578125 C -1.71875 2.722656 -2.132812 2.921875 -2.46875 3.171875 C -2.894531 3.484375 -3.1875 3.875 -3.34375 4.34375 C -3.507812 4.820312 -3.425781 5.28125 -3.09375 5.71875 C -2.820312 6.09375 -2.460938 6.285156 -2.015625 6.296875 C -1.578125 6.316406 -1.039062 6.242188 -0.40625 6.078125 C 0.15625 5.910156 0.648438 5.796875 1.078125 5.734375 C 1.503906 5.679688 1.929688 5.710938 2.359375 5.828125 C 2.796875 5.953125 3.175781 6.234375 3.5 6.671875 C 3.96875 7.304688 4.125 7.984375 3.96875 8.703125 C 3.820312 9.421875 3.394531 10.054688 2.6875 10.609375 C 1.820312 11.253906 0.859375 11.632812 -0.203125 11.75 Z M -0.421875 10.609375 "/></g></g></g><g fill="#3d3b3a" fill-opacity="1"><g transform="translate(200.466135, 163.547966)"><g><path d="M -1.828125 12.34375 L -2.4375 11.203125 L -0.046875 9.9375 L -4.140625 2.1875 L -2.953125 1.5625 L 1.140625 9.3125 L 3.46875 8.078125 L 4.078125 9.21875 Z M -1.828125 12.34375 "/></g></g></g><g fill="#3d3b3a" fill-opacity="1"><g transform="translate(189.898726, 168.86575)"><g><path d="M -5.53125 4.640625 L -1.875 3.40625 L -1.6875 0.5625 L -0.421875 0.140625 L -1.265625 11.46875 L -1.34375 11.5 L -8.84375 2.96875 L -7.359375 2.46875 Z M -4.71875 5.59375 L -2.203125 8.625 L -1.953125 4.671875 Z M -4.71875 5.59375 "/></g></g></g><g fill="#3d3b3a" fill-opacity="1"><g transform="translate(177.006095, 172.793791)"><g><path d="M -5.6875 11.109375 L -5.90625 9.828125 L -3.234375 9.40625 L -4.625 0.75 L -3.296875 0.53125 L -1.90625 9.1875 L 0.703125 8.765625 L 0.921875 10.046875 Z M -5.6875 11.109375 "/></g></g></g><g fill="#3d3b3a" fill-opacity="1"><g transform="translate(165.281952, 174.428657)"><g><path d="M -7.96875 10.078125 L -7.96875 8.78125 L -2.78125 8.765625 L -2.796875 5.703125 L -7.4375 5.71875 L -7.4375 4.421875 L -2.796875 4.40625 L -2.796875 1.3125 L -8.1875 1.328125 L -8.1875 0.015625 L -1.453125 0 L -1.4375 10.0625 Z M -7.96875 10.078125 "/></g></g></g><g fill="#3d3b3a" fill-opacity="1"><g transform="translate(152.411615, 174.031654)"><g/></g></g><g fill="#3d3b3a" fill-opacity="1"><g transform="translate(144.299059, 172.850791)"><g><path d="M -7.1875 0.71875 L -3.46875 1.765625 L -1.71875 -0.484375 L -0.4375 -0.125 L -7.5 8.78125 L -7.578125 8.765625 L -8.984375 -2.53125 L -7.46875 -2.109375 Z M -7.0625 1.96875 L -6.671875 5.890625 L -4.25 2.765625 Z M -7.0625 1.96875 "/></g></g></g><g fill="#3d3b3a" fill-opacity="1"><g transform="translate(131.439983, 168.921593)"><g><path d="M -8.78125 -3.3125 C -8.394531 -3.382812 -7.863281 -3.367188 -7.1875 -3.265625 C -6.507812 -3.171875 -5.921875 -3 -5.421875 -2.75 C -4.484375 -2.289062 -3.742188 -1.691406 -3.203125 -0.953125 C -2.671875 -0.222656 -2.378906 0.570312 -2.328125 1.4375 C -2.273438 2.300781 -2.453125 3.15625 -2.859375 4 C -3.335938 4.976562 -3.960938 5.726562 -4.734375 6.25 C -5.503906 6.769531 -6.332031 7.050781 -7.21875 7.09375 C -8.113281 7.132812 -8.976562 6.953125 -9.8125 6.546875 C -10.320312 6.296875 -10.773438 6 -11.171875 5.65625 C -11.566406 5.3125 -11.894531 4.953125 -12.15625 4.578125 L -11.21875 3.65625 C -11.019531 3.945312 -10.75 4.242188 -10.40625 4.546875 C -10.0625 4.859375 -9.722656 5.09375 -9.390625 5.25 C -8.691406 5.59375 -8 5.75 -7.3125 5.71875 C -6.632812 5.695312 -6.023438 5.492188 -5.484375 5.109375 C -4.941406 4.734375 -4.503906 4.191406 -4.171875 3.484375 C -3.847656 2.835938 -3.707031 2.1875 -3.75 1.53125 C -3.789062 0.882812 -4.007812 0.289062 -4.40625 -0.25 C -4.8125 -0.789062 -5.359375 -1.226562 -6.046875 -1.5625 C -6.359375 -1.71875 -6.679688 -1.832031 -7.015625 -1.90625 C -7.347656 -1.988281 -7.644531 -2.023438 -7.90625 -2.015625 L -8.78125 -0.203125 L -6.96875 0.671875 L -7.53125 1.8125 L -10.5625 0.34375 Z M -8.78125 -3.3125 "/></g></g></g><g fill="#3d3b3a" fill-opacity="1"><g transform="translate(118.874604, 162.394645)"><g><path d="M -12.359375 3.484375 L -11.609375 2.4375 L -7.40625 5.46875 L -5.609375 2.984375 L -9.375 0.265625 L -8.609375 -0.78125 L -4.84375 1.9375 L -3.03125 -0.578125 L -7.40625 -3.734375 L -6.640625 -4.796875 L -1.171875 -0.84375 L -7.0625 7.3125 Z M -12.359375 3.484375 "/></g></g></g><g fill="#3d3b3a" fill-opacity="1"><g transform="translate(108.648954, 154.736191)"><g><path d="M -14.328125 -0.421875 L -6.828125 -7.609375 L -6.796875 -7.578125 L -7.09375 2.953125 L -1.953125 -2.03125 L -1 -1.046875 L -8.5 6.125 L -8.546875 6.078125 L -8.171875 -4.5 L -13.40625 0.546875 Z M -14.328125 -0.421875 "/></g></g></g><g fill="#3d3b3a" fill-opacity="1"><g transform="translate(98.360974, 143.372573)"><g><path d="M -5.46875 -7 C -5.113281 -6.84375 -4.722656 -6.601562 -4.296875 -6.28125 C -3.867188 -5.957031 -3.5 -5.554688 -3.1875 -5.078125 C -2.613281 -4.210938 -2.300781 -3.328125 -2.25 -2.421875 C -2.207031 -1.515625 -2.394531 -0.675781 -2.8125 0.09375 C -3.226562 0.875 -3.820312 1.519531 -4.59375 2.03125 C -5.4375 2.570312 -6.304688 2.878906 -7.203125 2.953125 C -8.097656 3.023438 -8.9375 2.867188 -9.71875 2.484375 C -10.507812 2.097656 -11.171875 1.503906 -11.703125 0.703125 C -12.003906 0.234375 -12.226562 -0.242188 -12.375 -0.734375 C -12.519531 -1.222656 -12.597656 -1.703125 -12.609375 -2.171875 L -11.25 -2.40625 C -11.257812 -1.476562 -11.050781 -0.6875 -10.625 -0.03125 C -10.269531 0.507812 -9.800781 0.914062 -9.21875 1.1875 C -8.632812 1.46875 -8.003906 1.582031 -7.328125 1.53125 C -6.648438 1.476562 -6.015625 1.257812 -5.421875 0.875 C -4.816406 0.476562 -4.347656 0 -4.015625 -0.5625 C -3.691406 -1.125 -3.546875 -1.734375 -3.578125 -2.390625 C -3.617188 -3.046875 -3.835938 -3.679688 -4.234375 -4.296875 C -4.734375 -5.046875 -5.378906 -5.5625 -6.171875 -5.84375 Z M -5.46875 -7 "/></g></g></g><g fill="#3d3b3a" fill-opacity="1"><g transform="translate(91.316523, 132.023488)"><g><path d="M -12.90625 -4.515625 L -5.25 -3.6875 L -2.171875 -5.015625 L -1.640625 -3.78125 L -4.71875 -2.453125 L -9.390625 3.625 L -10.046875 2.09375 L -6.390625 -2.5 L -12.25 -2.984375 Z M -12.90625 -4.515625 "/></g></g></g><g fill="#3d3b3a" fill-opacity="1"><g transform="translate(86.414564, 119.539592)"><g/></g></g><g fill="#3d3b3a" fill-opacity="1"><g transform="translate(84.422072, 111.508316)"><g/></g></g><g clip-path="url(#46a27f753b)"><path fill="#231f20" d="M 175.683594 89.566406 C 175.097656 89.179688 174.457031 88.941406 173.746094 88.929688 C 172.917969 88.917969 172.09375 88.882812 171.265625 88.917969 C 167.714844 89.054688 164.3125 89.976562 160.925781 90.933594 C 158.21875 91.699219 155.535156 92.570312 152.839844 93.394531 C 152.292969 93.167969 151.980469 92.710938 151.777344 92.195312 C 151.472656 91.421875 150.863281 91.050781 150.15625 90.710938 C 149.519531 90.402344 148.847656 90.289062 148.164062 90.234375 C 146.761719 90.109375 145.433594 90.472656 144.117188 90.878906 C 141.398438 91.714844 138.925781 93.082031 136.5 94.496094 C 132.558594 96.789062 128.875 99.46875 125.433594 102.46875 C 125.09375 102.761719 124.667969 102.953125 124.050781 103.332031 C 124.117188 102.816406 124.058594 102.472656 124.195312 102.335938 C 125.019531 101.546875 125.398438 100.5 125.921875 99.539062 C 126.960938 97.597656 128.042969 95.683594 129.070312 93.738281 C 129.996094 91.980469 131.191406 90.351562 131.617188 88.445312 C 133.542969 86.78125 135.492188 85.242188 137.28125 83.523438 C 141.207031 79.761719 145.0625 75.933594 148.917969 72.09375 C 151.746094 69.269531 154.539062 66.410156 157.105469 63.335938 C 158.257812 61.957031 159.308594 60.511719 160.144531 58.929688 C 160.789062 57.695312 161.101562 56.359375 160.789062 54.878906 C 160.425781 54.605469 160.050781 54.316406 159.699219 54.046875 C 158.433594 54.066406 157.570312 54.445312 156.699219 54.902344 C 154.535156 56.042969 152.765625 57.691406 150.953125 59.269531 C 149.25 60.761719 147.699219 62.425781 146.066406 64.011719 C 142.453125 67.523438 139.296875 71.417969 136.367188 75.503906 C 134.761719 77.734375 133.226562 80.023438 131.679688 82.296875 C 131.097656 83.144531 130.375 83.914062 130.140625 84.960938 C 129.675781 85.355469 129.433594 85.890625 129.179688 86.425781 C 127.789062 87.0625 126.40625 87.714844 124.992188 88.296875 C 121.542969 89.710938 118.085938 91.101562 114.621094 92.484375 C 112.617188 93.285156 110.609375 94.085938 108.578125 94.8125 C 103.65625 96.582031 98.730469 98.363281 93.777344 100.046875 C 88.515625 101.835938 83.230469 103.570312 77.925781 105.222656 C 73.796875 106.507812 69.632812 107.65625 65.46875 108.816406 C 62.070312 109.765625 58.664062 110.699219 55.226562 111.515625 C 51.34375 112.4375 47.433594 113.265625 43.523438 114.039062 C 38.96875 114.949219 34.375 115.691406 29.765625 116.257812 C 26.320312 116.683594 22.882812 117.109375 19.410156 117.195312 C 17.117188 117.253906 14.824219 117.316406 12.539062 117.074219 C 9.894531 116.789062 7.433594 116.035156 5.453125 114.570312 C 4.820312 113.585938 5.472656 112.792969 5.460938 111.933594 C 4.796875 111.417969 4.128906 111.046875 3.324219 111.03125 C 2.742188 111.234375 2.1875 111.425781 1.628906 111.621094 C 1.378906 111.914062 1.128906 112.21875 0.949219 112.433594 L 0.957031 114.285156 C 1.230469 114.523438 1.460938 114.761719 1.734375 114.929688 C 2.179688 115.199219 2.648438 115.4375 3.125 115.660156 C 3.539062 115.851562 3.996094 115.957031 4.398438 116.175781 C 7.699219 117.945312 11.273438 118.550781 14.972656 118.679688 C 17.664062 118.773438 20.335938 118.578125 23.007812 118.347656 C 27.964844 117.917969 32.886719 117.175781 37.785156 116.339844 C 41.269531 115.75 44.742188 115.089844 48.191406 114.339844 C 52.285156 113.449219 56.359375 112.480469 60.414062 111.441406 C 63.644531 110.621094 66.839844 109.65625 70.042969 108.71875 C 73.683594 107.660156 77.335938 106.628906 80.941406 105.460938 C 86.601562 103.628906 92.273438 101.835938 97.847656 99.742188 C 102.863281 97.851562 107.929688 96.09375 112.957031 94.226562 C 116.140625 93.035156 119.296875 91.757812 122.453125 90.496094 C 124.296875 89.757812 126.128906 88.996094 127.964844 88.246094 C 127.789062 88.511719 127.585938 88.75 127.441406 89.027344 C 125.984375 91.832031 124.296875 94.511719 122.804688 97.304688 C 121.183594 100.335938 119.59375 103.386719 118.074219 106.46875 C 117.660156 107.316406 117.484375 108.292969 117.328125 109.238281 C 117.261719 109.671875 117.445312 110.175781 117.625 110.609375 C 117.773438 110.976562 118.085938 111.28125 118.277344 111.554688 C 118.972656 112.003906 119.6875 112.140625 120.308594 111.738281 C 121.277344 111.105469 122.371094 110.621094 123.089844 109.636719 C 123.328125 109.308594 123.660156 109.039062 123.972656 108.773438 C 125.132812 107.789062 126.292969 106.816406 127.46875 105.855469 C 129.449219 104.25 131.414062 102.628906 133.429688 101.066406 C 135.609375 99.375 137.976562 97.960938 140.296875 96.460938 C 142.167969 95.253906 144.179688 94.410156 146.246094 93.664062 C 146.933594 93.417969 147.730469 93.390625 148.480469 93.390625 C 149.042969 93.382812 149.558594 93.636719 149.628906 94.414062 C 148.996094 94.886719 148.304688 95.261719 147.527344 95.574219 C 145.988281 96.1875 144.464844 96.859375 143.007812 97.636719 C 139.664062 99.421875 136.527344 101.539062 133.472656 103.785156 C 129.460938 106.730469 125.886719 110.160156 122.785156 114.054688 C 121.671875 115.445312 120.628906 116.90625 119.9375 118.574219 C 119.335938 120.011719 119.050781 121.464844 119.636719 123.335938 C 119.902344 123.601562 120.375 124.089844 120.609375 124.320312 C 122.679688 124.933594 124.3125 124.597656 125.84375 123.941406 C 127.355469 123.296875 128.824219 122.507812 130.242188 121.671875 C 133.023438 120.019531 135.652344 118.136719 138.214844 116.167969 C 140.789062 114.191406 143.269531 112.105469 145.453125 109.699219 C 146.238281 108.832031 146.921875 107.867188 147.757812 107.050781 C 149.164062 105.667969 149.824219 103.828125 150.910156 102.253906 C 151.253906 101.753906 151.484375 101.148438 151.660156 100.558594 C 152.054688 99.242188 152.378906 97.90625 152.730469 96.574219 C 152.847656 96.117188 152.949219 95.65625 153.046875 95.253906 C 153.316406 95.097656 153.484375 94.960938 153.671875 94.894531 C 155.558594 94.230469 157.4375 93.550781 159.339844 92.929688 C 163.085938 91.710938 166.894531 90.738281 170.796875 90.1875 C 172.457031 89.957031 174.105469 89.964844 175.683594 90.660156 C 175.777344 90.699219 175.925781 90.621094 176.042969 90.597656 C 175.988281 89.878906 175.9375 89.707031 175.707031 89.554688 Z M 135.628906 82.328125 C 136.597656 80.746094 137.8125 79.320312 138.539062 77.589844 C 139.6875 76.566406 140.355469 75.183594 141.257812 73.976562 C 143.941406 70.402344 146.613281 66.816406 149.640625 63.527344 C 151.832031 61.152344 153.992188 58.734375 156.660156 56.855469 C 157.394531 56.339844 158.125 55.875 158.953125 55.675781 C 159.5 56.320312 159.253906 56.863281 158.96875 57.304688 C 158.054688 58.761719 157.164062 60.234375 156.125 61.59375 C 153.988281 64.378906 151.644531 66.988281 149.144531 69.445312 C 148.703125 69.878906 148.296875 70.355469 147.871094 70.796875 C 144.179688 74.683594 140.476562 78.574219 136.675781 82.359375 C 136.304688 82.71875 135.878906 83.019531 135.460938 83.367188 C 135.175781 82.878906 135.46875 82.585938 135.628906 82.328125 Z M 149.667969 97.96875 C 149.121094 99.449219 148.652344 100.988281 147.871094 102.347656 C 146.671875 104.421875 145.289062 106.386719 143.574219 108.113281 C 141.09375 110.605469 138.53125 113.015625 135.734375 115.125 C 132.664062 117.441406 129.46875 119.597656 126.027344 121.355469 C 125.179688 121.796875 124.261719 122.128906 123.355469 122.449219 C 122.839844 122.636719 122.277344 122.707031 121.625 122.3125 C 121.21875 121.722656 121.152344 121.152344 121.320312 120.503906 C 121.734375 118.875 122.589844 117.464844 123.519531 116.09375 C 125.863281 112.644531 128.890625 109.851562 132.078125 107.214844 C 133.566406 105.988281 135.101562 104.824219 136.660156 103.703125 C 139.058594 101.972656 141.675781 100.605469 144.257812 99.183594 C 145.640625 98.421875 147.09375 97.777344 148.519531 97.085938 C 148.816406 96.941406 149.152344 96.863281 149.617188 96.699219 C 149.644531 97.214844 149.785156 97.640625 149.667969 97.96875 Z M 149.667969 97.96875 " fill-opacity="1" fill-rule="nonzero"/></g><g clip-path="url(#c751cc0435)"><path fill="#231f20" d="M 314.027344 69.835938 C 312.382812 67.839844 312.226562 68.230469 310.8125 67.75 C 308.675781 67.023438 306.464844 66.902344 304.25 66.941406 C 301.070312 66.996094 297.898438 67.128906 294.726562 67.226562 C 289.257812 67.394531 283.816406 67.976562 278.402344 68.742188 C 268.398438 70.15625 258.480469 72.0625 248.683594 74.589844 C 244.9375 75.5625 241.199219 76.597656 237.476562 77.660156 C 233.554688 78.773438 229.617188 79.867188 225.742188 81.132812 C 218.582031 83.464844 211.464844 85.949219 204.519531 88.90625 C 198.785156 91.339844 193.082031 93.828125 187.570312 96.734375 C 186.480469 97.308594 185.363281 97.832031 184.101562 98.464844 C 183.960938 98.230469 183.863281 98.042969 183.75 97.863281 C 182.070312 95.238281 180.410156 92.597656 178.6875 90.007812 C 177.796875 88.65625 177.210938 87.171875 176.710938 85.660156 C 176.027344 83.585938 176.082031 81.480469 177.082031 79.566406 C 178.378906 77.089844 180.101562 74.9375 182.492188 73.382812 C 185.476562 71.441406 188.824219 70.671875 192.269531 70.203125 C 192.753906 70.136719 193.238281 70.222656 193.53125 70.628906 C 193.617188 71.84375 193.707031 73 193.78125 74.101562 C 194.289062 74.425781 194.691406 74.707031 195.109375 74.941406 C 195.28125 75.042969 195.503906 75.042969 195.769531 75.097656 C 196.222656 74.851562 196.710938 74.589844 197.132812 74.355469 C 198.125 72.511719 198.253906 71.859375 198.140625 69.5 C 197.839844 69.042969 197.539062 68.578125 197.136719 67.976562 C 196.742188 67.789062 196.332031 67.65625 196.007812 67.414062 C 195.179688 66.78125 194.292969 66.648438 193.273438 66.796875 C 192.113281 66.976562 190.929688 66.945312 189.832031 67.429688 C 186.851562 67.695312 184.3125 69.167969 181.792969 70.554688 C 178.878906 72.160156 176.769531 74.679688 175.171875 77.597656 C 173.96875 79.792969 173.425781 82.152344 173.925781 84.644531 C 174.285156 86.414062 174.777344 88.15625 175.707031 89.75 C 176.660156 91.367188 177.667969 92.949219 178.847656 94.410156 C 179.9375 95.765625 180.851562 97.246094 181.757812 98.726562 C 181.917969 98.992188 181.925781 99.347656 182.015625 99.683594 C 180.75 100.472656 179.574219 101.199219 178.402344 101.929688 C 174.632812 104.285156 171.039062 106.871094 167.925781 110.074219 C 166.855469 111.171875 165.949219 112.382812 165.34375 113.824219 C 164.867188 114.960938 164.992188 116.007812 165.632812 117.007812 C 165.886719 117.40625 166.261719 117.730469 166.40625 117.890625 C 167.832031 118.667969 169.117188 118.863281 170.457031 118.789062 C 174.117188 118.59375 177.578125 117.65625 180.625 115.59375 C 184.707031 112.828125 187.175781 107.898438 185.5 102.46875 C 185.234375 101.609375 184.96875 100.75 184.683594 99.839844 C 184.933594 99.671875 185.148438 99.511719 185.382812 99.375 C 189.136719 97.132812 193.105469 95.316406 197.050781 93.457031 C 201.433594 91.386719 205.894531 89.5 210.433594 87.820312 C 213.550781 86.671875 216.660156 85.492188 219.78125 84.375 C 222.453125 83.421875 225.148438 82.53125 227.835938 81.632812 C 229.609375 81.042969 231.382812 80.457031 233.175781 79.945312 C 236.101562 79.105469 239.035156 78.304688 241.972656 77.511719 C 245.113281 76.664062 248.234375 75.753906 251.398438 75.03125 C 257.402344 73.664062 263.417969 72.363281 269.480469 71.285156 C 274.589844 70.378906 279.71875 69.601562 284.867188 69.039062 C 291.546875 68.304688 298.257812 68.214844 304.976562 68.4375 C 306.714844 68.496094 308.429688 68.734375 310.054688 69.386719 C 310.328125 69.496094 310.542969 69.75 310.847656 69.992188 C 309.667969 70.40625 308.921875 71.027344 308.882812 72.257812 C 309.484375 73.027344 310.183594 73.527344 311.25 73.5625 C 311.820312 73.375 312.46875 73.164062 313.035156 72.980469 C 314.066406 71.492188 314.089844 71.425781 314.027344 69.839844 Z M 184.042969 108.535156 C 183.601562 110.261719 182.679688 111.722656 181.511719 113.003906 C 180.140625 114.507812 178.503906 115.675781 176.570312 116.359375 C 174.609375 117.058594 172.609375 117.578125 170.5 117.554688 C 168.808594 117.539062 168.519531 117.476562 166.738281 116.484375 C 166.238281 115.632812 166.242188 114.871094 166.613281 114.15625 C 166.960938 113.476562 167.367188 112.824219 167.820312 112.21875 C 169.207031 110.367188 170.984375 108.921875 172.757812 107.472656 C 174.898438 105.722656 179.710938 102.4375 182.609375 100.933594 C 183.292969 101.085938 183.292969 101.742188 183.492188 102.21875 C 184.34375 104.261719 184.609375 106.351562 184.042969 108.527344 Z M 184.042969 108.535156 " fill-opacity="1" fill-rule="nonzero"/></g></svg>