<svg xmlns="http://www.w3.org/2000/svg" xmlns:xlink="http://www.w3.org/1999/xlink" width="500" zoomAndPan="magnify" viewBox="0 0 375 374.999991" height="500" preserveAspectRatio="xMidYMid meet" version="1.0"><defs><g/></defs><g fill="#000000" fill-opacity="1"><g transform="translate(173.946084, 170.752954)"><g><path d="M 80.890625 -26.765625 C 82.054688 -26.515625 82.601562 -25.832031 82.53125 -24.71875 C 82.46875 -23.601562 82.078125 -22.492188 81.359375 -21.390625 C 79.484375 -18.585938 77.082031 -16.113281 74.15625 -13.96875 C 71.226562 -11.820312 68.203125 -10.3125 65.078125 -9.4375 C 61.960938 -8.570312 59.054688 -8.722656 56.359375 -9.890625 C 53.660156 -11.066406 51.582031 -13.570312 50.125 -17.40625 C 48.78125 -20.84375 48 -24.390625 47.78125 -28.046875 C 47.675781 -29.285156 47.601562 -32.390625 47.5625 -37.359375 C 47.53125 -42.328125 47.476562 -47.539062 47.40625 -53 C 47.34375 -58.46875 47.3125 -62.566406 47.3125 -65.296875 C 47.3125 -66.535156 47.3125 -67.191406 47.3125 -67.265625 C 45.289062 -59.921875 42.910156 -52.3125 40.171875 -44.4375 C 37.441406 -36.5625 35.492188 -31.289062 34.328125 -28.625 C 32.054688 -23.726562 29.519531 -18.941406 26.71875 -14.265625 C 24.757812 -11.210938 22.414062 -8.476562 19.6875 -6.0625 C 17.488281 -4.113281 14.863281 -2.941406 11.8125 -2.546875 C 8.757812 -2.160156 5.910156 -2.550781 3.265625 -3.71875 C 0.628906 -4.894531 -1.113281 -6.921875 -1.96875 -9.796875 C -2.851562 -13.160156 -3.054688 -16.421875 -2.578125 -19.578125 C -2.097656 -22.734375 -0.773438 -25.710938 1.390625 -28.515625 C 3.835938 -31.566406 6.640625 -33.5625 9.796875 -34.5 C 12.953125 -35.445312 16.390625 -35.476562 20.109375 -34.59375 C 21.285156 -34.300781 22.457031 -33.910156 23.625 -33.421875 C 24.195312 -33.203125 24.785156 -32.972656 25.390625 -32.734375 C 27.265625 -35.066406 29.316406 -39.691406 31.546875 -46.609375 C 33.785156 -53.535156 35.835938 -60.625 37.703125 -67.875 C 39.566406 -75.132812 40.851562 -80.394531 41.5625 -83.65625 C 43.757812 -93.476562 45.585938 -103.234375 47.046875 -112.921875 C 48.066406 -119.160156 49.164062 -125.441406 50.34375 -131.765625 C 50.800781 -133.816406 51.96875 -135.148438 53.84375 -135.765625 C 55.726562 -136.390625 57.488281 -136.082031 59.125 -134.84375 C 59.90625 -134.207031 60.296875 -133.425781 60.296875 -132.5 C 60.046875 -121.082031 59.53125 -109.609375 58.75 -98.078125 C 58.539062 -93.390625 58.3125 -88.8125 58.0625 -84.34375 C 57.59375 -75.550781 57.257812 -66.742188 57.0625 -57.921875 C 56.875 -49.109375 56.972656 -40.285156 57.359375 -31.453125 C 57.359375 -31.128906 57.359375 -30.773438 57.359375 -30.390625 C 57.359375 -28.609375 57.519531 -26.484375 57.84375 -24.015625 C 58.164062 -21.554688 58.8125 -19.46875 59.78125 -17.75 C 60.757812 -16.03125 62.332031 -15.453125 64.5 -16.015625 C 66.125 -16.546875 67.78125 -17.429688 69.46875 -18.671875 C 71.15625 -19.921875 72.78125 -21.21875 74.34375 -22.5625 C 75.757812 -23.800781 77.023438 -24.828125 78.140625 -25.640625 C 79.265625 -26.460938 80.179688 -26.835938 80.890625 -26.765625 Z M 13.671875 -11.546875 C 15.628906 -13.742188 17.332031 -16.082031 18.78125 -18.5625 C 20.238281 -21.050781 21.660156 -23.820312 23.046875 -26.875 C 21.265625 -27.726562 19.53125 -28.394531 17.84375 -28.875 C 16.164062 -29.351562 14.546875 -29.28125 12.984375 -28.65625 C 11.421875 -28.03125 9.945312 -26.550781 8.5625 -24.21875 C 5.976562 -19.601562 5.585938 -14.796875 7.390625 -9.796875 C 7.859375 -8.691406 8.5 -8.203125 9.3125 -8.328125 C 10.125 -8.453125 10.9375 -8.882812 11.75 -9.625 C 12.570312 -10.375 13.210938 -11.015625 13.671875 -11.546875 Z M 13.671875 -11.546875 "/></g></g></g><g fill="#000000" fill-opacity="1"><g transform="translate(250.514236, 170.752954)"><g><path d="M 11.328125 -20.8125 C 11.265625 -20.8125 11.195312 -20.8125 11.125 -20.8125 C 11.125 -20.8125 11.160156 -20.8125 11.234375 -20.8125 C 11.234375 -20.8125 11.265625 -20.8125 11.328125 -20.8125 Z M 48.578125 -26.1875 C 48.972656 -26.425781 49.59375 -26.710938 50.4375 -27.046875 C 51.289062 -27.390625 52.109375 -27.585938 52.890625 -27.640625 C 53.671875 -27.691406 54.222656 -27.398438 54.546875 -26.765625 C 54.796875 -26.304688 54.859375 -25.863281 54.734375 -25.4375 C 54.609375 -25.007812 54.382812 -24.632812 54.0625 -24.3125 C 52.113281 -22.1875 49.085938 -20.03125 44.984375 -17.84375 C 40.890625 -15.664062 36.644531 -13.742188 32.25 -12.078125 C 27.851562 -10.410156 24.195312 -9.328125 21.28125 -8.828125 C 17.945312 -8.222656 14.5625 -8.082031 11.125 -8.40625 C 6.90625 -8.9375 3.765625 -10.679688 1.703125 -13.640625 C -0.359375 -16.609375 -1.191406 -19.9375 -0.796875 -23.625 C -0.191406 -27.738281 1.6875 -31.007812 4.84375 -33.4375 C 8 -35.875 11.617188 -36.773438 15.703125 -36.140625 C 18.179688 -35.816406 20.429688 -34.910156 22.453125 -33.421875 C 24.648438 -31.648438 25.632812 -29.609375 25.40625 -27.296875 C 25.175781 -24.992188 23.800781 -23.222656 21.28125 -21.984375 C 19.96875 -21.335938 18.515625 -20.9375 16.921875 -20.78125 C 15.328125 -20.625 13.460938 -20.632812 11.328125 -20.8125 C 11.328125 -20.8125 11.273438 -20.8125 11.171875 -20.8125 C 11.066406 -20.8125 10.898438 -20.8125 10.671875 -20.8125 C 10.441406 -20.8125 10.203125 -20.8125 9.953125 -20.8125 C 9.316406 -20.8125 8.898438 -20.632812 8.703125 -20.28125 C 8.503906 -19.925781 8.492188 -19.476562 8.671875 -18.9375 C 9.847656 -16.03125 12.144531 -14.5 15.5625 -14.34375 C 18.988281 -14.1875 22.875 -14.832031 27.21875 -16.28125 C 31.5625 -17.738281 35.6875 -19.425781 39.59375 -21.34375 C 43.5 -23.257812 46.492188 -24.875 48.578125 -26.1875 Z M 11.234375 -29.59375 C 10.703125 -29.195312 10.335938 -28.738281 10.140625 -28.21875 C 9.941406 -27.707031 9.820312 -27.273438 9.78125 -26.921875 C 9.75 -26.566406 9.804688 -26.351562 9.953125 -26.28125 C 10.097656 -26.21875 10.539062 -26.125 11.28125 -26 C 12.03125 -25.875 12.851562 -25.851562 13.75 -25.9375 C 14.65625 -26.03125 15.398438 -26.226562 15.984375 -26.53125 C 16.578125 -26.832031 16.785156 -27.375 16.609375 -28.15625 C 16.210938 -29.25 15.457031 -29.9375 14.34375 -30.21875 C 13.226562 -30.507812 12.191406 -30.300781 11.234375 -29.59375 Z M 11.234375 -29.59375 "/></g></g></g><g fill="#000000" fill-opacity="1"><g transform="translate(299.679609, 170.752954)"><g><path d="M 45.875 -42.78125 C 48.457031 -42.882812 49.75 -41.679688 49.75 -39.171875 C 49.507812 -35.335938 48.941406 -31.566406 48.046875 -27.859375 C 47.160156 -24.148438 45.691406 -20.59375 43.640625 -17.1875 C 41.085938 -12.644531 37.148438 -10.535156 31.828125 -10.859375 C 28.703125 -11.066406 26.195312 -12.34375 24.3125 -14.6875 C 23.144531 -16.03125 22.3125 -16.640625 21.8125 -16.515625 C 21.320312 -16.398438 20.84375 -15.878906 20.375 -14.953125 C 20.0625 -14.492188 19.707031 -13.976562 19.3125 -13.40625 C 18.070312 -11.707031 16.546875 -10.34375 14.734375 -9.3125 C 12.328125 -8 10.03125 -7.632812 7.84375 -8.21875 C 5.664062 -8.800781 3.898438 -10.265625 2.546875 -12.609375 C 0.992188 -15.484375 0.00390625 -18.476562 -0.421875 -21.59375 C -0.847656 -24.71875 -0.832031 -27.878906 -0.375 -31.078125 C -0.0507812 -32.890625 0.90625 -34.164062 2.5 -34.90625 C 4.09375 -35.65625 5.757812 -35.601562 7.5 -34.75 C 8.5625 -34.039062 8.953125 -33.007812 8.671875 -31.65625 C 8.171875 -29.5625 8.019531 -27.441406 8.21875 -25.296875 C 8.414062 -23.148438 8.796875 -21.066406 9.359375 -19.046875 C 9.828125 -17.421875 10.367188 -16.722656 10.984375 -16.953125 C 11.609375 -17.179688 12.226562 -17.816406 12.84375 -18.859375 C 13.46875 -19.910156 13.976562 -20.863281 14.375 -21.71875 C 14.476562 -21.894531 14.566406 -22.050781 14.640625 -22.1875 C 14.953125 -22.832031 15.21875 -23.507812 15.4375 -24.21875 C 15.6875 -24.75 15.96875 -25.332031 16.28125 -25.96875 C 17.0625 -27.738281 18.007812 -28.914062 19.125 -29.5 C 20.25 -30.09375 21.785156 -30.28125 23.734375 -30.0625 C 25.679688 -29.8125 27.046875 -28.785156 27.828125 -26.984375 C 27.929688 -26.835938 28.019531 -26.640625 28.09375 -26.390625 C 29.09375 -24.160156 30.175781 -21.945312 31.34375 -19.75 C 32.226562 -18.1875 33.175781 -17.875 34.1875 -18.8125 C 35.195312 -19.75 36.144531 -21.242188 37.03125 -23.296875 C 37.925781 -25.359375 38.691406 -27.390625 39.328125 -29.390625 C 39.960938 -31.398438 40.316406 -32.707031 40.390625 -33.3125 C 40.460938 -33.695312 40.535156 -34.085938 40.609375 -34.484375 C 40.921875 -36.046875 41.273438 -37.640625 41.671875 -39.265625 C 42.203125 -41.609375 43.601562 -42.78125 45.875 -42.78125 Z M 45.875 -42.78125 "/></g></g></g><g fill="#000000" fill-opacity="1"><g transform="translate(37.500002, 256.840205)"><g><path d="M 42.140625 -26.28125 C 42.921875 -26.925781 43.503906 -27.148438 43.890625 -26.953125 C 44.285156 -26.753906 44.5625 -26.363281 44.71875 -25.78125 C 44.882812 -25.195312 44.96875 -24.617188 44.96875 -24.046875 C 44.894531 -22.984375 44.679688 -21.960938 44.328125 -20.984375 C 43.972656 -20.015625 43.722656 -19.367188 43.578125 -19.046875 C 43.472656 -18.972656 43.421875 -18.9375 43.421875 -18.9375 C 42.359375 -16.207031 40.671875 -13.507812 38.359375 -10.84375 C 36.054688 -8.1875 33.34375 -6.039062 30.21875 -4.40625 C 27.101562 -2.78125 23.789062 -2.070312 20.28125 -2.28125 C 15.34375 -2.851562 11.410156 -4.753906 8.484375 -7.984375 C 5.554688 -11.210938 3.359375 -15.066406 1.890625 -19.546875 C 0.421875 -24.035156 -0.5625 -28.460938 -1.0625 -32.828125 C -2.375 -43.617188 -2.765625 -54.476562 -2.234375 -65.40625 C -2.128906 -68.0625 -2.039062 -70.722656 -1.96875 -73.390625 C -1.96875 -74.304688 -1.96875 -75.226562 -1.96875 -76.15625 C -1.96875 -77.894531 -2.785156 -78.765625 -4.421875 -78.765625 C -6.160156 -78.765625 -7.878906 -78.796875 -9.578125 -78.859375 C -11.460938 -78.859375 -13.378906 -78.859375 -15.328125 -78.859375 C -15.578125 -78.859375 -15.84375 -78.859375 -16.125 -78.859375 C -17.46875 -78.722656 -18.726562 -78.957031 -19.90625 -79.5625 C -20.4375 -79.800781 -20.878906 -80.132812 -21.234375 -80.5625 C -21.585938 -80.988281 -21.765625 -81.519531 -21.765625 -82.15625 C -21.691406 -82.757812 -21.441406 -83.238281 -21.015625 -83.59375 C -20.585938 -83.957031 -20.054688 -84.140625 -19.421875 -84.140625 C -17.148438 -84.203125 -14.878906 -84.234375 -12.609375 -84.234375 C -11.222656 -84.234375 -9.859375 -84.234375 -8.515625 -84.234375 C -6.742188 -84.234375 -4.953125 -84.320312 -3.140625 -84.5 C -2.148438 -84.570312 -1.53125 -85.160156 -1.28125 -86.265625 C -1.132812 -87.578125 -1.007812 -88.890625 -0.90625 -90.203125 C -0.625 -94.492188 -0.320312 -98.785156 0 -103.078125 C 0.25 -106.054688 0.476562 -108.984375 0.6875 -111.859375 C 0.6875 -111.960938 0.6875 -112.050781 0.6875 -112.125 C 0.6875 -112.726562 0.738281 -113.3125 0.84375 -113.875 C 1.445312 -116.363281 3.117188 -117.535156 5.859375 -117.390625 C 8.191406 -117.210938 9.484375 -115.914062 9.734375 -113.5 C 9.804688 -111.945312 9.804688 -110.351562 9.734375 -108.71875 C 9.734375 -108.082031 9.734375 -107.425781 9.734375 -106.75 C 9.734375 -106.75 9.695312 -106.75 9.625 -106.75 C 9.519531 -104.9375 9.429688 -103.128906 9.359375 -101.328125 C 9.046875 -97.273438 8.816406 -93.175781 8.671875 -89.03125 C 8.535156 -86.863281 8.734375 -85.503906 9.265625 -84.953125 C 9.796875 -84.410156 11.226562 -84.171875 13.5625 -84.234375 C 17.96875 -84.171875 22.351562 -84.140625 26.71875 -84.140625 C 29.832031 -84.140625 32.953125 -84.101562 36.078125 -84.03125 C 36.398438 -84.03125 36.703125 -84.03125 36.984375 -84.03125 C 37.765625 -84.101562 38.507812 -84.078125 39.21875 -83.953125 C 39.925781 -83.828125 40.632812 -83.566406 41.34375 -83.171875 C 41.5625 -82.960938 41.765625 -82.738281 41.953125 -82.5 C 42.148438 -82.269531 42.300781 -81.960938 42.40625 -81.578125 C 42.40625 -81.191406 42.28125 -80.875 42.03125 -80.625 C 41.789062 -80.375 41.5625 -80.175781 41.34375 -80.03125 C 39.925781 -79.25 38.4375 -78.929688 36.875 -79.078125 C 36.664062 -79.078125 36.398438 -79.078125 36.078125 -79.078125 C 31.398438 -79.078125 26.753906 -79.039062 22.140625 -78.96875 C 19.546875 -78.894531 16.9375 -78.859375 14.3125 -78.859375 C 14.132812 -78.859375 13.972656 -78.859375 13.828125 -78.859375 C 12.660156 -78.859375 11.457031 -78.828125 10.21875 -78.765625 C 8.9375 -78.578125 8.191406 -77.863281 7.984375 -76.625 C 7.804688 -75.914062 7.71875 -75.222656 7.71875 -74.546875 C 7.4375 -67.671875 7.3125 -60.78125 7.34375 -53.875 C 7.375 -46.976562 7.816406 -40.125 8.671875 -33.3125 C 9.378906 -27.851562 10.816406 -22.617188 12.984375 -17.609375 C 14.148438 -14.878906 15.578125 -12.734375 17.265625 -11.171875 C 18.953125 -9.609375 20.84375 -8.953125 22.9375 -9.203125 C 26.84375 -9.847656 29.867188 -11.242188 32.015625 -13.390625 C 34.160156 -15.535156 35.976562 -17.847656 37.46875 -20.328125 C 38.882812 -22.742188 40.441406 -24.726562 42.140625 -26.28125 Z M 42.140625 -26.28125 "/></g></g></g><g fill="#000000" fill-opacity="1"><g transform="translate(76.395985, 256.840205)"><g><path d="M 64.765625 -26.390625 C 65.296875 -26.253906 65.65625 -25.890625 65.84375 -25.296875 C 66.039062 -24.710938 65.875 -24.03125 65.34375 -23.25 C 63.78125 -21.15625 61.457031 -18.988281 58.375 -16.75 C 55.289062 -14.519531 51.929688 -12.671875 48.296875 -11.203125 C 44.660156 -9.734375 41.164062 -9.128906 37.8125 -9.390625 C 34.457031 -9.660156 31.734375 -11.234375 29.640625 -14.109375 C 29.140625 -14.816406 28.660156 -15.523438 28.203125 -16.234375 C 27.347656 -17.929688 26.210938 -19.488281 24.796875 -20.90625 C 23.097656 -22.46875 21.535156 -22.46875 20.109375 -20.90625 C 17.378906 -17.925781 15.195312 -14.613281 13.5625 -10.96875 C 12.789062 -9.15625 12.015625 -7.363281 11.234375 -5.59375 C 10.703125 -4.238281 10.148438 -2.941406 9.578125 -1.703125 C 8.191406 1.804688 5.742188 3.015625 2.234375 1.921875 C 0.492188 1.273438 -0.476562 0.101562 -0.6875 -1.59375 C -0.757812 -2.226562 -0.757812 -2.882812 -0.6875 -3.5625 C -0.6875 -3.8125 -0.6875 -4.0625 -0.6875 -4.3125 C -0.476562 -11.019531 -0.25 -17.722656 0 -24.421875 C 0.457031 -40.285156 1.007812 -56.128906 1.65625 -71.953125 C 1.789062 -75.390625 1.894531 -78.828125 1.96875 -82.265625 C 2.21875 -89.046875 2.535156 -95.796875 2.921875 -102.515625 C 3.316406 -109.242188 3.90625 -115.957031 4.6875 -122.65625 C 5.070312 -125.320312 5.691406 -127.929688 6.546875 -130.484375 C 7.398438 -132.609375 8.84375 -134.097656 10.875 -134.953125 C 12.914062 -135.804688 15.046875 -135.972656 17.265625 -135.453125 C 19.484375 -134.941406 21.335938 -133.710938 22.828125 -131.765625 C 25.097656 -128.492188 26.394531 -124.875 26.71875 -120.90625 C 27.957031 -108.488281 27.847656 -96.640625 26.390625 -85.359375 C 24.941406 -74.078125 22.425781 -62.507812 18.84375 -50.65625 C 16.75 -43.632812 14.757812 -37.5 12.875 -32.25 C 12.238281 -30.539062 11.691406 -29.03125 11.234375 -27.71875 C 10.453125 -25.382812 10.0625 -23.921875 10.0625 -23.328125 C 10.0625 -22.742188 10.378906 -22.753906 11.015625 -23.359375 C 14.847656 -27.441406 18.8125 -29.398438 22.90625 -29.234375 C 27.007812 -29.078125 30.957031 -26.660156 34.75 -21.984375 C 35.070312 -21.515625 35.390625 -21.035156 35.703125 -20.546875 C 36.628906 -19.296875 37.507812 -18.28125 38.34375 -17.5 C 39.175781 -16.726562 40.085938 -16.269531 41.078125 -16.125 C 43.671875 -15.726562 46.429688 -16.363281 49.359375 -18.03125 C 52.285156 -19.707031 55.1875 -21.679688 58.0625 -23.953125 C 61.039062 -26.285156 63.273438 -27.097656 64.765625 -26.390625 Z M 16.96875 -122.765625 C 16.726562 -124.398438 16.472656 -125.3125 16.203125 -125.5 C 15.941406 -125.695312 15.675781 -125.484375 15.40625 -124.859375 C 15.132812 -124.242188 14.898438 -123.429688 14.703125 -122.421875 C 14.515625 -121.410156 14.359375 -120.46875 14.234375 -119.59375 C 14.109375 -118.726562 14.007812 -118.191406 13.9375 -117.984375 C 13.550781 -112.734375 13.144531 -106.050781 12.71875 -97.9375 C 12.289062 -89.832031 11.882812 -81.789062 11.5 -73.8125 C 11.175781 -67.351562 10.898438 -61.859375 10.671875 -57.328125 C 10.441406 -52.804688 10.238281 -50.070312 10.0625 -49.125 C 12.570312 -56 14.445312 -64.253906 15.6875 -73.890625 C 16.9375 -83.523438 17.640625 -92.828125 17.796875 -101.796875 C 17.960938 -110.773438 17.6875 -117.765625 16.96875 -122.765625 Z M 16.96875 -122.765625 "/></g></g></g><g fill="#000000" fill-opacity="1"><g transform="translate(136.309633, 256.840205)"><g><path d="M 11.328125 -20.8125 C 11.265625 -20.8125 11.195312 -20.8125 11.125 -20.8125 C 11.125 -20.8125 11.160156 -20.8125 11.234375 -20.8125 C 11.234375 -20.8125 11.265625 -20.8125 11.328125 -20.8125 Z M 48.578125 -26.1875 C 48.972656 -26.425781 49.59375 -26.710938 50.4375 -27.046875 C 51.289062 -27.390625 52.109375 -27.585938 52.890625 -27.640625 C 53.671875 -27.691406 54.222656 -27.398438 54.546875 -26.765625 C 54.796875 -26.304688 54.859375 -25.863281 54.734375 -25.4375 C 54.609375 -25.007812 54.382812 -24.632812 54.0625 -24.3125 C 52.113281 -22.1875 49.085938 -20.03125 44.984375 -17.84375 C 40.890625 -15.664062 36.644531 -13.742188 32.25 -12.078125 C 27.851562 -10.410156 24.195312 -9.328125 21.28125 -8.828125 C 17.945312 -8.222656 14.5625 -8.082031 11.125 -8.40625 C 6.90625 -8.9375 3.765625 -10.679688 1.703125 -13.640625 C -0.359375 -16.609375 -1.191406 -19.9375 -0.796875 -23.625 C -0.191406 -27.738281 1.6875 -31.007812 4.84375 -33.4375 C 8 -35.875 11.617188 -36.773438 15.703125 -36.140625 C 18.179688 -35.816406 20.429688 -34.910156 22.453125 -33.421875 C 24.648438 -31.648438 25.632812 -29.609375 25.40625 -27.296875 C 25.175781 -24.992188 23.800781 -23.222656 21.28125 -21.984375 C 19.96875 -21.335938 18.515625 -20.9375 16.921875 -20.78125 C 15.328125 -20.625 13.460938 -20.632812 11.328125 -20.8125 C 11.328125 -20.8125 11.273438 -20.8125 11.171875 -20.8125 C 11.066406 -20.8125 10.898438 -20.8125 10.671875 -20.8125 C 10.441406 -20.8125 10.203125 -20.8125 9.953125 -20.8125 C 9.316406 -20.8125 8.898438 -20.632812 8.703125 -20.28125 C 8.503906 -19.925781 8.492188 -19.476562 8.671875 -18.9375 C 9.847656 -16.03125 12.144531 -14.5 15.5625 -14.34375 C 18.988281 -14.1875 22.875 -14.832031 27.21875 -16.28125 C 31.5625 -17.738281 35.6875 -19.425781 39.59375 -21.34375 C 43.5 -23.257812 46.492188 -24.875 48.578125 -26.1875 Z M 11.234375 -29.59375 C 10.703125 -29.195312 10.335938 -28.738281 10.140625 -28.21875 C 9.941406 -27.707031 9.820312 -27.273438 9.78125 -26.921875 C 9.75 -26.566406 9.804688 -26.351562 9.953125 -26.28125 C 10.097656 -26.21875 10.539062 -26.125 11.28125 -26 C 12.03125 -25.875 12.851562 -25.851562 13.75 -25.9375 C 14.65625 -26.03125 15.398438 -26.226562 15.984375 -26.53125 C 16.578125 -26.832031 16.785156 -27.375 16.609375 -28.15625 C 16.210938 -29.25 15.457031 -29.9375 14.34375 -30.21875 C 13.226562 -30.507812 12.191406 -30.300781 11.234375 -29.59375 Z M 11.234375 -29.59375 "/></g></g></g><g fill="#000000" fill-opacity="1"><g transform="translate(185.475006, 256.840205)"><g><path d="M 58.90625 -27.828125 C 60.21875 -28.046875 61.03125 -28.003906 61.34375 -27.703125 C 61.664062 -27.398438 61.738281 -26.894531 61.5625 -26.1875 C 61.5 -24.9375 60.992188 -23.84375 60.046875 -22.90625 C 59.109375 -21.96875 57.894531 -21.144531 56.40625 -20.4375 C 52.894531 -18.800781 49.460938 -17.847656 46.109375 -17.578125 C 42.753906 -17.316406 39.25 -17.613281 35.59375 -18.46875 C 33.96875 -18.925781 32.585938 -18.941406 31.453125 -18.515625 C 30.316406 -18.085938 29.160156 -16.773438 27.984375 -14.578125 C 25.078125 -8.972656 20.46875 -5.816406 14.15625 -5.109375 C 9.40625 -4.648438 5.894531 -5.546875 3.625 -7.796875 C 1.351562 -10.046875 -0.0820312 -12.925781 -0.6875 -16.4375 C -1.394531 -20.0625 -1.242188 -23.453125 -0.234375 -26.609375 C 0.773438 -29.765625 2.453125 -32.707031 4.796875 -35.4375 C 6.597656 -37.394531 8.832031 -38.210938 11.5 -37.890625 C 12.738281 -37.890625 13.710938 -37.425781 14.421875 -36.5 C 14.804688 -35.863281 14.875 -35.3125 14.625 -34.84375 C 14.382812 -34.382812 14.03125 -33.960938 13.5625 -33.578125 C 9.738281 -29.566406 7.945312 -24.832031 8.1875 -19.375 C 8.257812 -16.8125 9.007812 -14.46875 10.4375 -12.34375 C 11.675781 -10.570312 13.234375 -10.304688 15.109375 -11.546875 C 16.890625 -12.960938 18.460938 -14.910156 19.828125 -17.390625 C 21.191406 -19.878906 21.96875 -22.4375 22.15625 -25.0625 C 22.351562 -27.6875 21.640625 -30.007812 20.015625 -32.03125 C 19.160156 -32.8125 18.34375 -33.363281 17.5625 -33.6875 C 17.164062 -33.894531 16.804688 -34.097656 16.484375 -34.296875 C 16.171875 -34.492188 16.015625 -34.75 16.015625 -35.0625 C 15.941406 -36.875 16.601562 -38.1875 18 -39 C 19.40625 -39.820312 21.128906 -40.234375 23.171875 -40.234375 C 25.210938 -40.234375 27.109375 -39.820312 28.859375 -39 C 30.617188 -38.1875 31.765625 -37 32.296875 -35.4375 C 32.867188 -33.414062 33.03125 -31.378906 32.78125 -29.328125 C 32.707031 -27.617188 33.414062 -26.304688 34.90625 -25.390625 C 38.238281 -23.046875 41.894531 -22.207031 45.875 -22.875 C 47.539062 -23.195312 49.054688 -23.632812 50.421875 -24.1875 C 51.785156 -24.738281 53.085938 -25.332031 54.328125 -25.96875 C 55.960938 -26.820312 57.488281 -27.441406 58.90625 -27.828125 Z M 58.90625 -27.828125 "/></g></g></g><g fill="#000000" fill-opacity="1"><g transform="translate(241.557586, 256.840205)"><g><path d="M 47.3125 -25.125 C 48.625 -26.46875 49.785156 -26.992188 50.796875 -26.703125 C 51.804688 -26.421875 52.4375 -25.675781 52.6875 -24.46875 C 52.9375 -23.269531 52.582031 -21.925781 51.625 -20.4375 C 49.664062 -17.5625 46.910156 -14.460938 43.359375 -11.140625 C 39.816406 -7.828125 35.992188 -4.9375 31.890625 -2.46875 C 27.796875 -0.0078125 23.925781 1.328125 20.28125 1.546875 C 12.863281 1.929688 9.382812 -1.613281 9.84375 -9.09375 C 9.914062 -10.09375 10.113281 -11.425781 10.4375 -13.09375 C 10.75 -14.71875 11.003906 -16.289062 11.203125 -17.8125 C 11.398438 -19.34375 11.300781 -20.375 10.90625 -20.90625 C 10.414062 -21.375 9.859375 -21.609375 9.234375 -21.609375 C 8.609375 -21.609375 7.941406 -21.535156 7.234375 -21.390625 C 6.453125 -21.210938 5.726562 -21.175781 5.0625 -21.28125 C 1.4375 -21.675781 -0.441406 -23.539062 -0.578125 -26.875 C -0.648438 -31.488281 0.195312 -35.90625 1.96875 -40.125 C 2.539062 -41.4375 3.601562 -42.304688 5.15625 -42.734375 C 6.71875 -43.160156 8.15625 -42.984375 9.46875 -42.203125 C 10.320312 -41.671875 10.710938 -40.941406 10.640625 -40.015625 C 10.503906 -38.742188 10.273438 -37.484375 9.953125 -36.234375 C 9.804688 -35.703125 9.679688 -35.15625 9.578125 -34.59375 C 8.898438 -31.320312 8.90625 -29.625 9.59375 -29.5 C 10.289062 -29.382812 11.8125 -30.265625 14.15625 -32.140625 C 15.894531 -33.378906 17.8125 -33.894531 19.90625 -33.6875 C 22.707031 -33.4375 23.84375 -31.875 23.3125 -29 C 22.84375 -27.050781 22.363281 -25.066406 21.875 -23.046875 C 20.8125 -18.890625 19.992188 -14.703125 19.421875 -10.484375 C 19.210938 -7.609375 19.726562 -5.929688 20.96875 -5.453125 C 22.207031 -4.972656 23.863281 -5.265625 25.9375 -6.328125 C 28.019531 -7.390625 30.203125 -8.816406 32.484375 -10.609375 C 34.773438 -12.398438 36.796875 -14.15625 38.546875 -15.875 C 40.304688 -17.601562 41.503906 -18.859375 42.140625 -19.640625 C 42.460938 -20.023438 42.953125 -20.5625 43.609375 -21.25 C 44.265625 -21.945312 44.945312 -22.648438 45.65625 -23.359375 C 46.4375 -24.140625 46.988281 -24.726562 47.3125 -25.125 Z M 47.3125 -25.125 "/></g></g></g><g fill="#000000" fill-opacity="1"><g transform="translate(287.477193, 256.840205)"><g><path d="M 56.890625 -26.984375 C 57.597656 -26.835938 58.082031 -26.410156 58.34375 -25.703125 C 58.613281 -24.992188 58.519531 -24.375 58.0625 -23.84375 C 54.863281 -20.46875 51.382812 -17.222656 47.625 -14.109375 C 44.113281 -11.085938 40.640625 -7.890625 37.203125 -4.515625 C 35.171875 -2.316406 34 0.25 33.6875 3.1875 C 33.613281 3.65625 33.578125 4.132812 33.578125 4.625 C 32.722656 12.257812 31.578125 20.546875 30.140625 29.484375 C 28.703125 38.421875 26.570312 47.046875 23.75 55.359375 C 20.9375 63.679688 17.117188 70.71875 12.296875 76.46875 C 10.734375 78.28125 8.972656 79.65625 7.015625 80.59375 C 5.066406 81.53125 2.832031 81.910156 0.3125 81.734375 C -5.039062 81.203125 -8.539062 79.195312 -10.1875 75.71875 C -11.84375 72.25 -12.117188 67.828125 -11.015625 62.453125 C -9.910156 57.078125 -7.972656 51.300781 -5.203125 45.125 C -2.441406 38.945312 0.65625 32.929688 4.09375 27.078125 C 7.539062 21.234375 10.78125 16.101562 13.8125 11.6875 C 16.84375 7.269531 19.226562 4.082031 20.96875 2.125 C 23.695312 -0.8125 25.132812 -4.195312 25.28125 -8.03125 C 25.414062 -9.59375 25.539062 -11.15625 25.65625 -12.71875 C 25.9375 -15.519531 26.128906 -18.640625 26.234375 -22.078125 C 25.128906 -21.296875 24.15625 -20.640625 23.3125 -20.109375 C 21.882812 -19.085938 20.585938 -18.21875 19.421875 -17.5 C 15.984375 -15.476562 12.273438 -14.894531 8.296875 -15.75 C 5.316406 -16.601562 3.1875 -18.296875 1.90625 -20.828125 C 0.632812 -23.367188 0.015625 -26.195312 0.046875 -29.3125 C 0.0859375 -32.4375 0.65625 -35.222656 1.75 -37.671875 C 2.46875 -39.234375 3.625 -40.226562 5.21875 -40.65625 C 6.8125 -41.082031 8.351562 -40.867188 9.84375 -40.015625 C 10.0625 -39.835938 10.265625 -39.570312 10.453125 -39.21875 C 10.648438 -38.863281 10.710938 -38.546875 10.640625 -38.265625 C 10.566406 -37.484375 10.375 -36.703125 10.0625 -35.921875 C 9.914062 -35.421875 9.789062 -34.90625 9.6875 -34.375 C 8.832031 -30.789062 9.082031 -27.242188 10.4375 -23.734375 C 11.28125 -21.535156 12.679688 -21.179688 14.640625 -22.671875 C 17.898438 -25.472656 20.664062 -28.71875 22.9375 -32.40625 C 23.644531 -33.46875 24.265625 -34.550781 24.796875 -35.65625 C 25.117188 -36.113281 25.40625 -36.59375 25.65625 -37.09375 C 27.207031 -39.4375 29.351562 -40.445312 32.09375 -40.125 C 35.101562 -39.945312 36.609375 -38.382812 36.609375 -35.4375 C 36.535156 -31.363281 36.394531 -27.335938 36.1875 -23.359375 C 36.082031 -21.484375 35.992188 -19.625 35.921875 -17.78125 C 35.773438 -16.21875 35.914062 -15.273438 36.34375 -14.953125 C 36.769531 -14.628906 37.640625 -15.019531 38.953125 -16.125 C 39.835938 -16.832031 40.707031 -17.523438 41.5625 -18.203125 C 44.613281 -20.648438 47.609375 -23.078125 50.546875 -25.484375 C 52.503906 -27.046875 54.617188 -27.546875 56.890625 -26.984375 Z M 4.796875 72.53125 C 7.835938 68.769531 10.660156 63.28125 13.265625 56.0625 C 15.878906 48.84375 18.03125 41.363281 19.71875 33.625 C 21.40625 25.894531 22.316406 19.421875 22.453125 14.203125 C 21.210938 14.453125 19.75 15.878906 18.0625 18.484375 C 16.375 21.097656 14.597656 24.414062 12.734375 28.4375 C 10.878906 32.46875 9.046875 36.664062 7.234375 41.03125 C 6.921875 41.8125 6.253906 43.796875 5.234375 46.984375 C 4.222656 50.179688 3.191406 53.789062 2.140625 57.8125 C 1.097656 61.84375 0.320312 65.5 -0.1875 68.78125 C -0.695312 72.0625 -0.617188 74.207031 0.046875 75.21875 C 0.722656 76.226562 2.304688 75.332031 4.796875 72.53125 Z M 4.796875 72.53125 "/></g></g></g></svg>