<svg xmlns="http://www.w3.org/2000/svg" xmlns:xlink="http://www.w3.org/1999/xlink" width="342" zoomAndPan="magnify" viewBox="0 0 256.5 196.499994" height="262" preserveAspectRatio="xMidYMid meet" version="1.0"><defs><g/><clipPath id="8b98fae305"><path d="M 80.839844 24 L 111 24 L 111 87 L 80.839844 87 Z M 80.839844 24 " clip-rule="nonzero"/></clipPath><clipPath id="fd36dab148"><path d="M 144 0 L 174.351562 0 L 174.351562 87 L 144 87 Z M 144 0 " clip-rule="nonzero"/></clipPath></defs><g clip-path="url(#8b98fae305)"><path fill="#ffffff" d="M 105.742188 38.753906 C 105.164062 38.273438 87.023438 26.324219 85.234375 25.375 C 82.992188 24.183594 81.078125 25.472656 80.925781 28.085938 C 80.890625 28.695312 81.082031 57.882812 81.097656 59.851562 C 80.851562 63.699219 82.003906 67.035156 84.722656 69.800781 C 86.039062 71.152344 110.257812 86.386719 110.28125 86.339844 C 110.683594 85.976562 110.828125 53.902344 110.558594 52.101562 C 111.253906 46.820312 109.945312 42.261719 105.742188 38.753906 Z M 105.742188 38.753906 " fill-opacity="1" fill-rule="nonzero"/></g><path fill="#ffffff" d="M 142.4375 85.042969 C 142.46875 80.03125 142.546875 41.6875 142.527344 41.304688 C 142.351562 36.960938 140.585938 33.363281 136.988281 30.960938 C 130.785156 26.824219 117.128906 18.324219 116.671875 18.148438 C 116.148438 17.910156 115.648438 17.8125 115.1875 17.832031 C 114.769531 17.839844 114.398438 17.945312 114.085938 18.152344 C 113.261719 18.632812 112.707031 19.628906 112.628906 20.980469 C 112.597656 21.488281 112.703125 84.394531 112.679688 86.777344 C 112.667969 87.738281 112.867188 88.308594 113.828125 88.871094 C 117.515625 91.039062 121.140625 93.328125 124.707031 95.691406 C 126.796875 97.078125 128.699219 97.042969 130.761719 95.683594 C 133.835938 93.660156 136.894531 91.582031 140.117188 89.816406 C 142.199219 88.679688 143.039062 87.304688 142.4375 85.042969 Z M 142.4375 85.042969 " fill-opacity="1" fill-rule="nonzero"/><g clip-path="url(#fd36dab148)"><path fill="#ffffff" d="M 174.414062 25.8125 C 174.464844 25.003906 174.46875 24.214844 174.414062 23.449219 C 174.414062 23.394531 174.414062 23.339844 174.414062 23.289062 C 174.128906 18.480469 171.847656 14.84375 167.882812 12.226562 C 163.5 9.332031 159.152344 6.382812 154.660156 3.671875 C 152.824219 2.566406 151.050781 1.296875 148.996094 0.523438 C 148.984375 0.519531 148.96875 0.507812 148.957031 0.5 C 148.332031 0.167969 147.734375 0.0351562 147.191406 0.0625 C 146.3125 0.0078125 145.703125 0.324219 145.332031 1.089844 C 144.945312 1.621094 144.695312 2.339844 144.644531 3.210938 C 144.632812 3.445312 144.980469 81.015625 144.898438 86.195312 C 145.320312 86.84375 145.757812 86.417969 146.136719 86.171875 C 151.984375 82.40625 157.828125 78.628906 163.667969 74.855469 C 169.289062 72.074219 173.808594 68.34375 174.371094 61.566406 C 174.601562 58.816406 174.410156 28.625 174.414062 25.8125 Z M 174.414062 25.8125 " fill-opacity="1" fill-rule="nonzero"/></g><g fill="#ffffff" fill-opacity="1"><g transform="translate(38.574063, 135.097136)"><g><path d="M 20.609375 -6.796875 L 20.75 -6.734375 L 19.046875 0 L 18.828125 0.765625 L 17.640625 0 L 0.515625 0 L 0.515625 -0.171875 C 1.242188 -0.429688 1.867188 -0.757812 2.390625 -1.15625 C 2.910156 -1.550781 3.171875 -2.0625 3.171875 -2.6875 L 3.171875 -22.421875 C 3.171875 -23.046875 2.910156 -23.476562 2.390625 -23.71875 C 1.867188 -23.96875 1.242188 -24.140625 0.515625 -24.234375 L 0.515625 -24.40625 L 9.734375 -24.40625 L 9.734375 -24.234375 C 8.847656 -24.140625 8.125 -23.96875 7.5625 -23.71875 C 7.007812 -23.476562 6.734375 -23.046875 6.734375 -22.421875 L 6.734375 -0.5625 L 11.546875 -0.5625 C 13.148438 -0.5625 14.460938 -0.796875 15.484375 -1.265625 C 16.503906 -1.742188 17.398438 -2.445312 18.171875 -3.375 C 18.941406 -4.3125 19.753906 -5.453125 20.609375 -6.796875 Z M 20.609375 -6.796875 "/></g></g></g><g fill="#ffffff" fill-opacity="1"><g transform="translate(64.169256, 135.097136)"><g><path d="M 0.515625 0 L 0.515625 -0.171875 C 1.242188 -0.265625 1.867188 -0.429688 2.390625 -0.671875 C 2.910156 -0.921875 3.171875 -1.359375 3.171875 -1.984375 L 3.171875 -22.421875 C 3.171875 -23.046875 2.910156 -23.476562 2.390625 -23.71875 C 1.867188 -23.96875 1.242188 -24.140625 0.515625 -24.234375 L 0.515625 -24.40625 L 9.375 -24.40625 L 9.375 -24.234375 C 8.65625 -24.140625 8.035156 -23.96875 7.515625 -23.71875 C 6.992188 -23.476562 6.734375 -23.046875 6.734375 -22.421875 L 6.734375 -1.984375 C 6.734375 -1.359375 6.992188 -0.921875 7.515625 -0.671875 C 8.035156 -0.429688 8.65625 -0.265625 9.375 -0.171875 L 9.375 0 Z M 0.515625 0 "/></g></g></g><g fill="#ffffff" fill-opacity="1"><g transform="translate(78.397383, 135.097136)"><g><path d="M 15.484375 -14.125 C 17.671875 -13.894531 19.382812 -13.28125 20.625 -12.28125 C 21.875 -11.28125 22.5 -9.875 22.5 -8.0625 C 22.5 -6.550781 22.050781 -5.179688 21.15625 -3.953125 C 20.257812 -2.734375 19.003906 -1.769531 17.390625 -1.0625 C 15.773438 -0.351562 13.875 0 11.6875 0 L 0.515625 0 L 0.515625 -0.171875 C 1.242188 -0.429688 1.867188 -0.757812 2.390625 -1.15625 C 2.910156 -1.550781 3.171875 -2.0625 3.171875 -2.6875 L 3.171875 -22.421875 C 3.171875 -23.046875 2.910156 -23.476562 2.390625 -23.71875 C 1.867188 -23.96875 1.242188 -24.140625 0.515625 -24.234375 L 0.515625 -24.40625 L 10.28125 -24.40625 C 12.164062 -24.40625 13.859375 -24.25 15.359375 -23.9375 C 16.859375 -23.625 18.035156 -23.117188 18.890625 -22.421875 C 19.753906 -21.722656 20.1875 -20.769531 20.1875 -19.5625 C 20.1875 -18.65625 19.953125 -17.828125 19.484375 -17.078125 C 19.023438 -16.335938 18.4375 -15.71875 17.71875 -15.21875 C 17 -14.71875 16.253906 -14.351562 15.484375 -14.125 Z M 10.5 -23.859375 L 6.734375 -23.859375 L 6.734375 -14.234375 L 13.25 -14.234375 C 13.875 -14.234375 14.453125 -14.320312 14.984375 -14.5 C 15.523438 -14.6875 15.953125 -15.050781 16.265625 -15.59375 C 16.578125 -16.144531 16.734375 -16.957031 16.734375 -18.03125 C 16.734375 -19.144531 16.53125 -20.132812 16.125 -21 C 15.71875 -21.875 15.054688 -22.566406 14.140625 -23.078125 C 13.222656 -23.597656 12.007812 -23.859375 10.5 -23.859375 Z M 12.484375 -0.625 C 13.992188 -0.625 15.222656 -0.789062 16.171875 -1.125 C 17.128906 -1.46875 17.832031 -2.09375 18.28125 -3 C 18.738281 -3.90625 18.96875 -5.179688 18.96875 -6.828125 C 18.96875 -7.648438 18.882812 -8.460938 18.71875 -9.265625 C 18.5625 -10.066406 18.234375 -10.796875 17.734375 -11.453125 C 17.234375 -12.117188 16.492188 -12.648438 15.515625 -13.046875 C 14.535156 -13.441406 13.222656 -13.640625 11.578125 -13.640625 L 6.734375 -13.640625 L 6.734375 -1.390625 C 7.734375 -1.140625 8.734375 -0.945312 9.734375 -0.8125 C 10.734375 -0.6875 11.648438 -0.625 12.484375 -0.625 Z M 12.484375 -0.625 "/></g></g></g><g fill="#ffffff" fill-opacity="1"><g transform="translate(106.607709, 135.097136)"><g><path d="M 21.484375 -6.796875 L 21.625 -6.734375 L 19.90625 0 L 19.703125 0.765625 L 18.515625 0 L 0.515625 0 L 0.515625 -0.171875 C 1.242188 -0.429688 1.867188 -0.757812 2.390625 -1.15625 C 2.910156 -1.550781 3.171875 -2.0625 3.171875 -2.6875 L 3.171875 -22.421875 C 3.171875 -23.046875 2.910156 -23.476562 2.390625 -23.71875 C 1.867188 -23.96875 1.242188 -24.140625 0.515625 -24.234375 L 0.515625 -24.40625 L 19.21875 -24.40625 L 20.359375 -18.875 L 20.234375 -18.796875 C 19.460938 -19.910156 18.738281 -20.835938 18.0625 -21.578125 C 17.382812 -22.328125 16.628906 -22.894531 15.796875 -23.28125 C 14.960938 -23.664062 13.894531 -23.859375 12.59375 -23.859375 L 6.734375 -23.859375 L 6.734375 -12.484375 L 11.609375 -12.484375 C 12.847656 -12.484375 13.820312 -12.597656 14.53125 -12.828125 C 15.238281 -13.066406 15.789062 -13.441406 16.1875 -13.953125 C 16.582031 -14.460938 16.914062 -15.144531 17.1875 -16 L 17.1875 -8.40625 C 16.914062 -9.257812 16.582031 -9.941406 16.1875 -10.453125 C 15.789062 -10.972656 15.238281 -11.347656 14.53125 -11.578125 C 13.820312 -11.804688 12.847656 -11.921875 11.609375 -11.921875 L 6.734375 -11.921875 L 6.734375 -0.5625 L 13.28125 -0.5625 C 14.582031 -0.5625 15.671875 -0.796875 16.546875 -1.265625 C 17.421875 -1.742188 18.234375 -2.445312 18.984375 -3.375 C 19.742188 -4.3125 20.578125 -5.453125 21.484375 -6.796875 Z M 21.484375 -6.796875 "/></g></g></g><g fill="#ffffff" fill-opacity="1"><g transform="translate(133.074609, 135.097136)"><g><path d="M 19.390625 -4.609375 C 20.085938 -3.671875 20.707031 -2.925781 21.25 -2.375 C 21.800781 -1.832031 22.34375 -1.394531 22.875 -1.0625 C 23.414062 -0.726562 23.988281 -0.410156 24.59375 -0.109375 L 24.59375 0 L 18.28125 0 L 18.28125 -0.59375 L 11.46875 -10.015625 L 6.734375 -10.015625 L 6.734375 -1.984375 C 6.734375 -1.359375 6.992188 -0.921875 7.515625 -0.671875 C 8.035156 -0.429688 8.65625 -0.265625 9.375 -0.171875 L 9.375 0 L 0.515625 0 L 0.515625 -0.171875 C 1.242188 -0.265625 1.867188 -0.429688 2.390625 -0.671875 C 2.910156 -0.921875 3.171875 -1.359375 3.171875 -1.984375 L 3.171875 -22.421875 C 3.171875 -23.046875 2.910156 -23.476562 2.390625 -23.71875 C 1.867188 -23.96875 1.242188 -24.140625 0.515625 -24.234375 L 0.515625 -24.40625 L 12.765625 -24.40625 C 15.578125 -24.40625 17.8125 -23.867188 19.46875 -22.796875 C 21.132812 -21.734375 21.96875 -20.132812 21.96875 -18 C 21.96875 -16.1875 21.351562 -14.609375 20.125 -13.265625 C 18.894531 -11.929688 17.207031 -11 15.0625 -10.46875 Z M 6.734375 -11.40625 C 8.546875 -10.894531 10.367188 -10.640625 12.203125 -10.640625 C 13.648438 -10.640625 14.835938 -10.804688 15.765625 -11.140625 C 16.691406 -11.472656 17.375 -12.082031 17.8125 -12.96875 C 18.257812 -13.851562 18.484375 -15.097656 18.484375 -16.703125 C 18.484375 -17.585938 18.390625 -18.445312 18.203125 -19.28125 C 18.015625 -20.125 17.660156 -20.878906 17.140625 -21.546875 C 16.617188 -22.222656 15.859375 -22.765625 14.859375 -23.171875 C 13.859375 -23.578125 12.53125 -23.78125 10.875 -23.78125 L 6.734375 -23.78125 Z M 6.734375 -11.40625 "/></g></g></g><g fill="#ffffff" fill-opacity="1"><g transform="translate(161.633614, 135.097136)"><g><path d="M 23.71875 -24.40625 L 21.484375 -17.234375 L 21.34375 -17.234375 C 21.570312 -19.597656 21.21875 -21.296875 20.28125 -22.328125 C 19.34375 -23.367188 17.976562 -23.890625 16.1875 -23.890625 L 13.640625 -23.890625 L 13.640625 -2.34375 C 13.640625 -1.550781 13.925781 -1.015625 14.5 -0.734375 C 15.082031 -0.453125 15.910156 -0.265625 16.984375 -0.171875 L 16.984375 0 L 6.734375 0 L 6.734375 -0.171875 C 7.796875 -0.265625 8.617188 -0.453125 9.203125 -0.734375 C 9.785156 -1.015625 10.078125 -1.550781 10.078125 -2.34375 L 10.078125 -23.890625 L 9.28125 -23.890625 C 7.945312 -23.890625 6.832031 -23.757812 5.9375 -23.5 C 5.050781 -23.25 4.289062 -22.859375 3.65625 -22.328125 C 3.03125 -21.804688 2.472656 -21.117188 1.984375 -20.265625 C 1.492188 -19.421875 0.992188 -18.410156 0.484375 -17.234375 L 0.34375 -17.234375 L 1.5 -24.40625 Z M 23.71875 -24.40625 "/></g></g></g><g fill="#ffffff" fill-opacity="1"><g transform="translate(190.018276, 135.097136)"><g><path d="M 18.625 -24.40625 L 26.328125 -24.40625 L 26.328125 -24.265625 C 25.703125 -24.128906 25.113281 -23.953125 24.5625 -23.734375 C 24.019531 -23.515625 23.503906 -23.179688 23.015625 -22.734375 C 22.523438 -22.296875 22.015625 -21.671875 21.484375 -20.859375 L 14.859375 -10.53125 L 14.859375 -1.984375 C 14.859375 -1.359375 15.132812 -0.921875 15.6875 -0.671875 C 16.25 -0.429688 16.972656 -0.265625 17.859375 -0.171875 L 17.859375 0 L 8.296875 0 L 8.296875 -0.171875 C 9.179688 -0.265625 9.898438 -0.429688 10.453125 -0.671875 C 11.015625 -0.921875 11.296875 -1.359375 11.296875 -1.984375 L 11.296875 -9.828125 L 4.21875 -21.234375 C 3.59375 -22.253906 2.960938 -22.992188 2.328125 -23.453125 C 1.703125 -23.910156 1.097656 -24.179688 0.515625 -24.265625 L 0.515625 -24.40625 L 6.421875 -24.40625 L 8.296875 -21.234375 L 14.4375 -11.1875 L 20.609375 -20.890625 C 21.140625 -21.722656 21.367188 -22.359375 21.296875 -22.796875 C 21.234375 -23.242188 20.960938 -23.570312 20.484375 -23.78125 C 20.015625 -23.988281 19.394531 -24.148438 18.625 -24.265625 Z M 18.625 -24.40625 "/></g></g></g><g fill="#ffffff" fill-opacity="1"><g transform="translate(22.396478, 168.013377)"><g><path d="M 19.421875 -24.40625 L 20.578125 -18.875 L 20.4375 -18.796875 C 19.664062 -19.910156 18.941406 -20.835938 18.265625 -21.578125 C 17.597656 -22.328125 16.84375 -22.894531 16 -23.28125 C 15.164062 -23.664062 14.097656 -23.859375 12.796875 -23.859375 L 6.734375 -23.859375 L 6.734375 -12.140625 L 11.78125 -12.140625 C 13.019531 -12.140625 13.992188 -12.253906 14.703125 -12.484375 C 15.410156 -12.710938 15.960938 -13.082031 16.359375 -13.59375 C 16.753906 -14.113281 17.09375 -14.800781 17.375 -15.65625 L 17.375 -8.0625 C 17.09375 -8.914062 16.753906 -9.597656 16.359375 -10.109375 C 15.960938 -10.617188 15.410156 -10.988281 14.703125 -11.21875 C 13.992188 -11.457031 13.019531 -11.578125 11.78125 -11.578125 L 6.734375 -11.578125 L 6.734375 -1.984375 C 6.734375 -1.359375 6.992188 -0.921875 7.515625 -0.671875 C 8.035156 -0.429688 8.65625 -0.265625 9.375 -0.171875 L 9.375 0 L 0.515625 0 L 0.515625 -0.171875 C 1.242188 -0.429688 1.867188 -0.757812 2.390625 -1.15625 C 2.910156 -1.550781 3.171875 -2.0625 3.171875 -2.6875 L 3.171875 -22.421875 C 3.171875 -23.046875 2.910156 -23.476562 2.390625 -23.71875 C 1.867188 -23.96875 1.242188 -24.140625 0.515625 -24.234375 L 0.515625 -24.40625 Z M 19.421875 -24.40625 "/></g></g></g><g fill="#ffffff" fill-opacity="1"><g transform="translate(47.991672, 168.013377)"><g><path d="M 19.390625 -4.609375 C 20.085938 -3.671875 20.707031 -2.925781 21.25 -2.375 C 21.800781 -1.832031 22.34375 -1.394531 22.875 -1.0625 C 23.414062 -0.726562 23.988281 -0.410156 24.59375 -0.109375 L 24.59375 0 L 18.28125 0 L 18.28125 -0.59375 L 11.46875 -10.015625 L 6.734375 -10.015625 L 6.734375 -1.984375 C 6.734375 -1.359375 6.992188 -0.921875 7.515625 -0.671875 C 8.035156 -0.429688 8.65625 -0.265625 9.375 -0.171875 L 9.375 0 L 0.515625 0 L 0.515625 -0.171875 C 1.242188 -0.265625 1.867188 -0.429688 2.390625 -0.671875 C 2.910156 -0.921875 3.171875 -1.359375 3.171875 -1.984375 L 3.171875 -22.421875 C 3.171875 -23.046875 2.910156 -23.476562 2.390625 -23.71875 C 1.867188 -23.96875 1.242188 -24.140625 0.515625 -24.234375 L 0.515625 -24.40625 L 12.765625 -24.40625 C 15.578125 -24.40625 17.8125 -23.867188 19.46875 -22.796875 C 21.132812 -21.734375 21.96875 -20.132812 21.96875 -18 C 21.96875 -16.1875 21.351562 -14.609375 20.125 -13.265625 C 18.894531 -11.929688 17.207031 -11 15.0625 -10.46875 Z M 6.734375 -11.40625 C 8.546875 -10.894531 10.367188 -10.640625 12.203125 -10.640625 C 13.648438 -10.640625 14.835938 -10.804688 15.765625 -11.140625 C 16.691406 -11.472656 17.375 -12.082031 17.8125 -12.96875 C 18.257812 -13.851562 18.484375 -15.097656 18.484375 -16.703125 C 18.484375 -17.585938 18.390625 -18.445312 18.203125 -19.28125 C 18.015625 -20.125 17.660156 -20.878906 17.140625 -21.546875 C 16.617188 -22.222656 15.859375 -22.765625 14.859375 -23.171875 C 13.859375 -23.578125 12.53125 -23.78125 10.875 -23.78125 L 6.734375 -23.78125 Z M 6.734375 -11.40625 "/></g></g></g><g fill="#ffffff" fill-opacity="1"><g transform="translate(76.550679, 168.013377)"><g><path d="M 23.890625 -4.390625 C 24.304688 -3.328125 24.675781 -2.5 25 -1.90625 C 25.332031 -1.3125 25.675781 -0.882812 26.03125 -0.625 C 26.394531 -0.375 26.832031 -0.210938 27.34375 -0.140625 L 27.34375 0 L 17.546875 0 L 17.546875 -0.140625 C 18.359375 -0.210938 19.03125 -0.367188 19.5625 -0.609375 C 20.09375 -0.847656 20.425781 -1.25 20.5625 -1.8125 C 20.707031 -2.375 20.570312 -3.164062 20.15625 -4.1875 L 19.453125 -5.921875 L 5.828125 -5.921875 L 5.0625 -4.1875 C 4.613281 -3.1875 4.445312 -2.414062 4.5625 -1.875 C 4.6875 -1.34375 4.976562 -0.953125 5.4375 -0.703125 C 5.90625 -0.460938 6.460938 -0.273438 7.109375 -0.140625 L 7.109375 0 L 0.703125 0 L 0.703125 -0.140625 C 1.191406 -0.273438 1.625 -0.46875 2 -0.71875 C 2.382812 -0.976562 2.753906 -1.375 3.109375 -1.90625 C 3.472656 -2.445312 3.867188 -3.21875 4.296875 -4.21875 L 12.03125 -22.078125 L 11.96875 -22.84375 L 12.515625 -23.234375 L 15.765625 -25.359375 C 15.765625 -25.210938 15.796875 -25.003906 15.859375 -24.734375 C 15.929688 -24.472656 16.15625 -23.890625 16.53125 -22.984375 Z M 6.0625 -6.5625 L 19.21875 -6.5625 L 12.90625 -22.3125 Z M 6.0625 -6.5625 "/></g></g></g><g fill="#ffffff" fill-opacity="1"><g transform="translate(108.910328, 168.013377)"><g><path d="M 19.078125 -24.40625 L 25.109375 -24.40625 L 25.109375 -24.234375 C 24.640625 -24.191406 24.203125 -24.054688 23.796875 -23.828125 C 23.390625 -23.609375 23.0625 -23.132812 22.8125 -22.40625 C 22.570312 -21.675781 22.453125 -20.519531 22.453125 -18.9375 L 22.453125 -5.796875 C 22.453125 -3.972656 22.472656 -2.554688 22.515625 -1.546875 C 22.566406 -0.535156 22.609375 0.28125 22.640625 0.90625 L 22.5625 0.96875 L 4.21875 -20.828125 L 4.21875 -6.171875 C 4.21875 -4.585938 4.335938 -3.367188 4.578125 -2.515625 C 4.828125 -1.671875 5.15625 -1.085938 5.5625 -0.765625 C 5.96875 -0.441406 6.40625 -0.242188 6.875 -0.171875 L 6.875 0 L 0.875 0 L 0.875 -0.171875 C 1.363281 -0.242188 1.804688 -0.382812 2.203125 -0.59375 C 2.597656 -0.800781 2.914062 -1.269531 3.15625 -2 C 3.394531 -2.738281 3.515625 -3.894531 3.515625 -5.46875 L 3.515625 -21.65625 C 2.941406 -22.351562 2.410156 -22.914062 1.921875 -23.34375 C 1.429688 -23.78125 0.90625 -24.132812 0.34375 -24.40625 L 6.203125 -24.40625 C 6.316406 -24.195312 6.46875 -23.9375 6.65625 -23.625 C 6.84375 -23.3125 7.125 -22.945312 7.5 -22.53125 L 21.734375 -5.578125 L 21.734375 -18.234375 C 21.734375 -19.816406 21.609375 -21.03125 21.359375 -21.875 C 21.117188 -22.726562 20.800781 -23.320312 20.40625 -23.65625 C 20.007812 -24 19.566406 -24.191406 19.078125 -24.234375 Z M 19.078125 -24.40625 "/></g></g></g><g fill="#ffffff" fill-opacity="1"><g transform="translate(138.864057, 168.013377)"><g><path d="M 24.234375 0 L 17.953125 0 L 17.953125 -0.59375 L 9.03125 -11.328125 L 6.734375 -11.328125 L 6.734375 -1.984375 C 6.734375 -1.359375 6.992188 -0.921875 7.515625 -0.671875 C 8.035156 -0.429688 8.65625 -0.265625 9.375 -0.171875 L 9.375 0 L 0.515625 0 L 0.515625 -0.171875 C 1.242188 -0.265625 1.867188 -0.429688 2.390625 -0.671875 C 2.910156 -0.921875 3.171875 -1.359375 3.171875 -1.984375 L 3.171875 -22.421875 C 3.171875 -23.046875 2.910156 -23.476562 2.390625 -23.71875 C 1.867188 -23.96875 1.242188 -24.140625 0.515625 -24.234375 L 0.515625 -24.40625 L 9.375 -24.40625 L 9.375 -24.234375 C 8.65625 -24.140625 8.035156 -23.96875 7.515625 -23.71875 C 6.992188 -23.476562 6.734375 -23.046875 6.734375 -22.421875 L 6.734375 -11.375 L 18.234375 -22.53125 C 18.472656 -22.738281 18.625 -22.953125 18.6875 -23.171875 C 18.757812 -23.390625 18.65625 -23.59375 18.375 -23.78125 C 18.09375 -23.96875 17.523438 -24.109375 16.671875 -24.203125 L 16.734375 -24.40625 L 23.578125 -24.40625 L 23.5 -24.203125 C 22.78125 -24.109375 21.859375 -23.789062 20.734375 -23.25 C 19.609375 -22.71875 18.273438 -21.695312 16.734375 -20.1875 L 10.78125 -14.40625 L 19.046875 -4.609375 C 19.859375 -3.648438 20.535156 -2.882812 21.078125 -2.3125 C 21.628906 -1.75 22.140625 -1.296875 22.609375 -0.953125 C 23.085938 -0.617188 23.628906 -0.300781 24.234375 0 Z M 24.234375 0 "/></g></g></g><g fill="#ffffff" fill-opacity="1"><g transform="translate(167.597403, 168.013377)"><g><path d="M 20.609375 -6.796875 L 20.75 -6.734375 L 19.046875 0 L 18.828125 0.765625 L 17.640625 0 L 0.515625 0 L 0.515625 -0.171875 C 1.242188 -0.429688 1.867188 -0.757812 2.390625 -1.15625 C 2.910156 -1.550781 3.171875 -2.0625 3.171875 -2.6875 L 3.171875 -22.421875 C 3.171875 -23.046875 2.910156 -23.476562 2.390625 -23.71875 C 1.867188 -23.96875 1.242188 -24.140625 0.515625 -24.234375 L 0.515625 -24.40625 L 9.734375 -24.40625 L 9.734375 -24.234375 C 8.847656 -24.140625 8.125 -23.96875 7.5625 -23.71875 C 7.007812 -23.476562 6.734375 -23.046875 6.734375 -22.421875 L 6.734375 -0.5625 L 11.546875 -0.5625 C 13.148438 -0.5625 14.460938 -0.796875 15.484375 -1.265625 C 16.503906 -1.742188 17.398438 -2.445312 18.171875 -3.375 C 18.941406 -4.3125 19.753906 -5.453125 20.609375 -6.796875 Z M 20.609375 -6.796875 "/></g></g></g><g fill="#ffffff" fill-opacity="1"><g transform="translate(193.192594, 168.013377)"><g><path d="M 0.515625 0 L 0.515625 -0.171875 C 1.242188 -0.265625 1.867188 -0.429688 2.390625 -0.671875 C 2.910156 -0.921875 3.171875 -1.359375 3.171875 -1.984375 L 3.171875 -22.421875 C 3.171875 -23.046875 2.910156 -23.476562 2.390625 -23.71875 C 1.867188 -23.96875 1.242188 -24.140625 0.515625 -24.234375 L 0.515625 -24.40625 L 9.375 -24.40625 L 9.375 -24.234375 C 8.65625 -24.140625 8.035156 -23.96875 7.515625 -23.71875 C 6.992188 -23.476562 6.734375 -23.046875 6.734375 -22.421875 L 6.734375 -1.984375 C 6.734375 -1.359375 6.992188 -0.921875 7.515625 -0.671875 C 8.035156 -0.429688 8.65625 -0.265625 9.375 -0.171875 L 9.375 0 Z M 0.515625 0 "/></g></g></g><g fill="#ffffff" fill-opacity="1"><g transform="translate(207.420717, 168.013377)"><g><path d="M 19.078125 -24.40625 L 25.109375 -24.40625 L 25.109375 -24.234375 C 24.640625 -24.191406 24.203125 -24.054688 23.796875 -23.828125 C 23.390625 -23.609375 23.0625 -23.132812 22.8125 -22.40625 C 22.570312 -21.675781 22.453125 -20.519531 22.453125 -18.9375 L 22.453125 -5.796875 C 22.453125 -3.972656 22.472656 -2.554688 22.515625 -1.546875 C 22.566406 -0.535156 22.609375 0.28125 22.640625 0.90625 L 22.5625 0.96875 L 4.21875 -20.828125 L 4.21875 -6.171875 C 4.21875 -4.585938 4.335938 -3.367188 4.578125 -2.515625 C 4.828125 -1.671875 5.15625 -1.085938 5.5625 -0.765625 C 5.96875 -0.441406 6.40625 -0.242188 6.875 -0.171875 L 6.875 0 L 0.875 0 L 0.875 -0.171875 C 1.363281 -0.242188 1.804688 -0.382812 2.203125 -0.59375 C 2.597656 -0.800781 2.914062 -1.269531 3.15625 -2 C 3.394531 -2.738281 3.515625 -3.894531 3.515625 -5.46875 L 3.515625 -21.65625 C 2.941406 -22.351562 2.410156 -22.914062 1.921875 -23.34375 C 1.429688 -23.78125 0.90625 -24.132812 0.34375 -24.40625 L 6.203125 -24.40625 C 6.316406 -24.195312 6.46875 -23.9375 6.65625 -23.625 C 6.84375 -23.3125 7.125 -22.945312 7.5 -22.53125 L 21.734375 -5.578125 L 21.734375 -18.234375 C 21.734375 -19.816406 21.609375 -21.03125 21.359375 -21.875 C 21.117188 -22.726562 20.800781 -23.320312 20.40625 -23.65625 C 20.007812 -24 19.566406 -24.191406 19.078125 -24.234375 Z M 19.078125 -24.40625 "/></g></g></g><g fill="#ffffff" fill-opacity="1"><g transform="translate(65.870126, 189.502562)"><g><path d="M 4.71875 0.15625 C 4.125 0.15625 3.578125 0.0507812 3.078125 -0.15625 C 2.585938 -0.363281 2.160156 -0.648438 1.796875 -1.015625 C 1.441406 -1.390625 1.160156 -1.828125 0.953125 -2.328125 C 0.753906 -2.835938 0.65625 -3.394531 0.65625 -4 C 0.65625 -4.601562 0.753906 -5.15625 0.953125 -5.65625 C 1.160156 -6.164062 1.441406 -6.601562 1.796875 -6.96875 C 2.160156 -7.34375 2.585938 -7.632812 3.078125 -7.84375 C 3.578125 -8.050781 4.125 -8.15625 4.71875 -8.15625 C 5.34375 -8.15625 5.921875 -8.035156 6.453125 -7.796875 C 6.984375 -7.566406 7.4375 -7.238281 7.8125 -6.8125 C 8.195312 -6.382812 8.472656 -5.875 8.640625 -5.28125 L 7.578125 -5.28125 C 7.367188 -5.863281 7.007812 -6.316406 6.5 -6.640625 C 5.988281 -6.972656 5.40625 -7.140625 4.75 -7.140625 C 4.15625 -7.140625 3.628906 -7.003906 3.171875 -6.734375 C 2.710938 -6.472656 2.347656 -6.101562 2.078125 -5.625 C 1.816406 -5.15625 1.6875 -4.613281 1.6875 -4 C 1.6875 -3.382812 1.816406 -2.835938 2.078125 -2.359375 C 2.347656 -1.890625 2.710938 -1.519531 3.171875 -1.25 C 3.628906 -0.988281 4.15625 -0.859375 4.75 -0.859375 C 5.425781 -0.859375 6.023438 -1.03125 6.546875 -1.375 C 7.078125 -1.726562 7.445312 -2.207031 7.65625 -2.8125 L 8.71875 -2.8125 C 8.550781 -2.21875 8.273438 -1.695312 7.890625 -1.25 C 7.503906 -0.8125 7.039062 -0.46875 6.5 -0.21875 C 5.957031 0.03125 5.363281 0.15625 4.71875 0.15625 Z M 4.71875 0.15625 "/></g></g></g><g fill="#ffffff" fill-opacity="1"><g transform="translate(75.198489, 189.502562)"><g><path d="M 4.796875 0.15625 C 3.992188 0.15625 3.28125 -0.0195312 2.65625 -0.375 C 2.03125 -0.738281 1.539062 -1.234375 1.1875 -1.859375 C 0.832031 -2.484375 0.65625 -3.195312 0.65625 -4 C 0.65625 -4.820312 0.832031 -5.539062 1.1875 -6.15625 C 1.539062 -6.78125 2.03125 -7.269531 2.65625 -7.625 C 3.28125 -7.976562 3.992188 -8.15625 4.796875 -8.15625 C 5.617188 -8.15625 6.335938 -7.976562 6.953125 -7.625 C 7.578125 -7.269531 8.066406 -6.78125 8.421875 -6.15625 C 8.773438 -5.539062 8.953125 -4.820312 8.953125 -4 C 8.953125 -3.195312 8.773438 -2.484375 8.421875 -1.859375 C 8.066406 -1.234375 7.578125 -0.738281 6.953125 -0.375 C 6.335938 -0.0195312 5.617188 0.15625 4.796875 0.15625 Z M 1.6875 -4 C 1.6875 -3.382812 1.816406 -2.835938 2.078125 -2.359375 C 2.347656 -1.890625 2.71875 -1.519531 3.1875 -1.25 C 3.65625 -0.988281 4.191406 -0.859375 4.796875 -0.859375 C 5.421875 -0.859375 5.960938 -0.988281 6.421875 -1.25 C 6.890625 -1.519531 7.253906 -1.890625 7.515625 -2.359375 C 7.785156 -2.835938 7.921875 -3.382812 7.921875 -4 C 7.921875 -4.625 7.785156 -5.171875 7.515625 -5.640625 C 7.253906 -6.109375 6.890625 -6.472656 6.421875 -6.734375 C 5.960938 -7.003906 5.421875 -7.140625 4.796875 -7.140625 C 4.191406 -7.140625 3.65625 -7.003906 3.1875 -6.734375 C 2.71875 -6.472656 2.347656 -6.109375 2.078125 -5.640625 C 1.816406 -5.171875 1.6875 -4.625 1.6875 -4 Z M 1.6875 -4 "/></g></g></g><g fill="#ffffff" fill-opacity="1"><g transform="translate(84.801214, 189.502562)"><g><path d="M 1.171875 0 L 1.171875 -8 L 2.109375 -8 L 6.546875 -1.734375 L 6.546875 -8 L 7.53125 -8 L 7.53125 0 L 6.59375 0 L 2.15625 -6.265625 L 2.15625 0 Z M 1.171875 0 "/></g></g></g><g fill="#ffffff" fill-opacity="1"><g transform="translate(93.489387, 189.502562)"><g><path d="M 3.828125 0.15625 C 3.191406 0.15625 2.640625 0.046875 2.171875 -0.171875 C 1.703125 -0.390625 1.335938 -0.695312 1.078125 -1.09375 C 0.828125 -1.488281 0.695312 -1.941406 0.6875 -2.453125 L 1.6875 -2.453125 C 1.707031 -1.941406 1.910156 -1.539062 2.296875 -1.25 C 2.691406 -0.957031 3.203125 -0.8125 3.828125 -0.8125 C 4.390625 -0.8125 4.835938 -0.921875 5.171875 -1.140625 C 5.503906 -1.359375 5.671875 -1.664062 5.671875 -2.0625 C 5.671875 -2.4375 5.507812 -2.738281 5.1875 -2.96875 C 4.875 -3.195312 4.351562 -3.394531 3.625 -3.5625 C 2.644531 -3.789062 1.925781 -4.085938 1.46875 -4.453125 C 1.007812 -4.828125 0.78125 -5.328125 0.78125 -5.953125 C 0.78125 -6.628906 1.035156 -7.164062 1.546875 -7.5625 C 2.066406 -7.957031 2.765625 -8.15625 3.640625 -8.15625 C 4.535156 -8.15625 5.242188 -7.929688 5.765625 -7.484375 C 6.285156 -7.035156 6.550781 -6.421875 6.5625 -5.640625 L 5.5625 -5.640625 C 5.5625 -6.117188 5.382812 -6.492188 5.03125 -6.765625 C 4.6875 -7.046875 4.222656 -7.1875 3.640625 -7.1875 C 3.066406 -7.1875 2.617188 -7.070312 2.296875 -6.84375 C 1.972656 -6.625 1.8125 -6.328125 1.8125 -5.953125 C 1.8125 -5.617188 1.957031 -5.335938 2.25 -5.109375 C 2.550781 -4.890625 3.09375 -4.6875 3.875 -4.5 C 4.894531 -4.25 5.625 -3.929688 6.0625 -3.546875 C 6.5 -3.171875 6.71875 -2.691406 6.71875 -2.109375 C 6.71875 -1.410156 6.453125 -0.859375 5.921875 -0.453125 C 5.398438 -0.046875 4.703125 0.15625 3.828125 0.15625 Z M 3.828125 0.15625 "/></g></g></g><g fill="#ffffff" fill-opacity="1"><g transform="translate(100.885765, 189.502562)"><g><path d="M 4.15625 0.140625 C 3.1875 0.140625 2.429688 -0.160156 1.890625 -0.765625 C 1.347656 -1.367188 1.078125 -2.203125 1.078125 -3.265625 L 1.078125 -8 L 2.0625 -8 L 2.0625 -3.328125 C 2.0625 -2.515625 2.238281 -1.894531 2.59375 -1.46875 C 2.957031 -1.050781 3.476562 -0.84375 4.15625 -0.84375 C 5.550781 -0.84375 6.25 -1.671875 6.25 -3.328125 L 6.25 -8 L 7.265625 -8 L 7.265625 -3.265625 C 7.265625 -2.203125 6.988281 -1.367188 6.4375 -0.765625 C 5.882812 -0.160156 5.125 0.140625 4.15625 0.140625 Z M 4.15625 0.140625 "/></g></g></g><g fill="#ffffff" fill-opacity="1"><g transform="translate(109.219559, 189.502562)"><g><path d="M 1.171875 0 L 1.171875 -8 L 2.171875 -8 L 2.171875 -0.953125 L 6.0625 -0.953125 L 6.0625 0 Z M 1.171875 0 "/></g></g></g><g fill="#ffffff" fill-opacity="1"><g transform="translate(115.632805, 189.502562)"><g><path d="M 3.09375 0 L 3.09375 -7.046875 L 0.390625 -7.046875 L 0.390625 -8 L 6.8125 -8 L 6.8125 -7.046875 L 4.109375 -7.046875 L 4.109375 0 Z M 3.09375 0 "/></g></g></g><g fill="#ffffff" fill-opacity="1"><g transform="translate(122.834842, 189.502562)"><g><path d="M 1.171875 0 L 1.171875 -8 L 2.171875 -8 L 2.171875 0 Z M 1.171875 0 "/></g></g></g><g fill="#ffffff" fill-opacity="1"><g transform="translate(126.172933, 189.502562)"><g><path d="M 1.171875 0 L 1.171875 -8 L 2.109375 -8 L 6.546875 -1.734375 L 6.546875 -8 L 7.53125 -8 L 7.53125 0 L 6.59375 0 L 2.15625 -6.265625 L 2.15625 0 Z M 1.171875 0 "/></g></g></g><g fill="#ffffff" fill-opacity="1"><g transform="translate(134.861106, 189.502562)"><g><path d="M 4.734375 0.15625 C 4.148438 0.15625 3.609375 0.0507812 3.109375 -0.15625 C 2.617188 -0.363281 2.1875 -0.648438 1.8125 -1.015625 C 1.445312 -1.390625 1.160156 -1.828125 0.953125 -2.328125 C 0.753906 -2.835938 0.65625 -3.394531 0.65625 -4 C 0.65625 -4.601562 0.753906 -5.15625 0.953125 -5.65625 C 1.160156 -6.164062 1.445312 -6.601562 1.8125 -6.96875 C 2.175781 -7.34375 2.601562 -7.632812 3.09375 -7.84375 C 3.582031 -8.050781 4.125 -8.15625 4.71875 -8.15625 C 5.320312 -8.15625 5.882812 -8.039062 6.40625 -7.8125 C 6.925781 -7.59375 7.375 -7.285156 7.75 -6.890625 C 8.125 -6.492188 8.394531 -6.035156 8.5625 -5.515625 L 7.46875 -5.515625 C 7.21875 -6.035156 6.851562 -6.4375 6.375 -6.71875 C 5.90625 -7 5.363281 -7.140625 4.75 -7.140625 C 4.15625 -7.140625 3.625 -7.003906 3.15625 -6.734375 C 2.695312 -6.472656 2.335938 -6.101562 2.078125 -5.625 C 1.816406 -5.15625 1.6875 -4.613281 1.6875 -4 C 1.6875 -3.382812 1.816406 -2.835938 2.078125 -2.359375 C 2.347656 -1.890625 2.710938 -1.519531 3.171875 -1.25 C 3.628906 -0.988281 4.160156 -0.859375 4.765625 -0.859375 C 5.296875 -0.859375 5.769531 -0.960938 6.1875 -1.171875 C 6.613281 -1.390625 6.957031 -1.6875 7.21875 -2.0625 C 7.488281 -2.4375 7.65625 -2.878906 7.71875 -3.390625 L 4.453125 -3.390625 L 4.453125 -4.34375 L 8.8125 -4.34375 C 8.820312 -3.46875 8.65625 -2.691406 8.3125 -2.015625 C 7.976562 -1.335938 7.503906 -0.804688 6.890625 -0.421875 C 6.273438 -0.0351562 5.554688 0.15625 4.734375 0.15625 Z M 4.734375 0.15625 "/></g></g></g><g fill="#ffffff" fill-opacity="1"><g transform="translate(144.292353, 189.502562)"><g/></g></g><g fill="#ffffff" fill-opacity="1"><g transform="translate(147.12744, 189.502562)"><g><path d="M 4.734375 0.15625 C 4.148438 0.15625 3.609375 0.0507812 3.109375 -0.15625 C 2.617188 -0.363281 2.1875 -0.648438 1.8125 -1.015625 C 1.445312 -1.390625 1.160156 -1.828125 0.953125 -2.328125 C 0.753906 -2.835938 0.65625 -3.394531 0.65625 -4 C 0.65625 -4.601562 0.753906 -5.15625 0.953125 -5.65625 C 1.160156 -6.164062 1.445312 -6.601562 1.8125 -6.96875 C 2.175781 -7.34375 2.601562 -7.632812 3.09375 -7.84375 C 3.582031 -8.050781 4.125 -8.15625 4.71875 -8.15625 C 5.320312 -8.15625 5.882812 -8.039062 6.40625 -7.8125 C 6.925781 -7.59375 7.375 -7.285156 7.75 -6.890625 C 8.125 -6.492188 8.394531 -6.035156 8.5625 -5.515625 L 7.46875 -5.515625 C 7.21875 -6.035156 6.851562 -6.4375 6.375 -6.71875 C 5.90625 -7 5.363281 -7.140625 4.75 -7.140625 C 4.15625 -7.140625 3.625 -7.003906 3.15625 -6.734375 C 2.695312 -6.472656 2.335938 -6.101562 2.078125 -5.625 C 1.816406 -5.15625 1.6875 -4.613281 1.6875 -4 C 1.6875 -3.382812 1.816406 -2.835938 2.078125 -2.359375 C 2.347656 -1.890625 2.710938 -1.519531 3.171875 -1.25 C 3.628906 -0.988281 4.160156 -0.859375 4.765625 -0.859375 C 5.296875 -0.859375 5.769531 -0.960938 6.1875 -1.171875 C 6.613281 -1.390625 6.957031 -1.6875 7.21875 -2.0625 C 7.488281 -2.4375 7.65625 -2.878906 7.71875 -3.390625 L 4.453125 -3.390625 L 4.453125 -4.34375 L 8.8125 -4.34375 C 8.820312 -3.46875 8.65625 -2.691406 8.3125 -2.015625 C 7.976562 -1.335938 7.503906 -0.804688 6.890625 -0.421875 C 6.273438 -0.0351562 5.554688 0.15625 4.734375 0.15625 Z M 4.734375 0.15625 "/></g></g></g><g fill="#ffffff" fill-opacity="1"><g transform="translate(156.558687, 189.502562)"><g><path d="M 1.171875 0 L 1.171875 -8 L 4.21875 -8 C 4.78125 -8 5.265625 -7.894531 5.671875 -7.6875 C 6.085938 -7.476562 6.410156 -7.179688 6.640625 -6.796875 C 6.867188 -6.421875 6.984375 -5.96875 6.984375 -5.4375 C 6.984375 -4.78125 6.8125 -4.238281 6.46875 -3.8125 C 6.132812 -3.394531 5.675781 -3.113281 5.09375 -2.96875 L 7.109375 0 L 5.890625 0 L 3.9375 -2.875 L 2.171875 -2.875 L 2.171875 0 Z M 2.171875 -3.828125 L 4.109375 -3.828125 C 4.691406 -3.828125 5.144531 -3.96875 5.46875 -4.25 C 5.789062 -4.53125 5.953125 -4.925781 5.953125 -5.4375 C 5.953125 -5.945312 5.789062 -6.34375 5.46875 -6.625 C 5.144531 -6.90625 4.691406 -7.046875 4.109375 -7.046875 L 2.171875 -7.046875 Z M 2.171875 -3.828125 "/></g></g></g><g fill="#ffffff" fill-opacity="1"><g transform="translate(164.343747, 189.502562)"><g><path d="M 4.796875 0.15625 C 3.992188 0.15625 3.28125 -0.0195312 2.65625 -0.375 C 2.03125 -0.738281 1.539062 -1.234375 1.1875 -1.859375 C 0.832031 -2.484375 0.65625 -3.195312 0.65625 -4 C 0.65625 -4.820312 0.832031 -5.539062 1.1875 -6.15625 C 1.539062 -6.78125 2.03125 -7.269531 2.65625 -7.625 C 3.28125 -7.976562 3.992188 -8.15625 4.796875 -8.15625 C 5.617188 -8.15625 6.335938 -7.976562 6.953125 -7.625 C 7.578125 -7.269531 8.066406 -6.78125 8.421875 -6.15625 C 8.773438 -5.539062 8.953125 -4.820312 8.953125 -4 C 8.953125 -3.195312 8.773438 -2.484375 8.421875 -1.859375 C 8.066406 -1.234375 7.578125 -0.738281 6.953125 -0.375 C 6.335938 -0.0195312 5.617188 0.15625 4.796875 0.15625 Z M 1.6875 -4 C 1.6875 -3.382812 1.816406 -2.835938 2.078125 -2.359375 C 2.347656 -1.890625 2.71875 -1.519531 3.1875 -1.25 C 3.65625 -0.988281 4.191406 -0.859375 4.796875 -0.859375 C 5.421875 -0.859375 5.960938 -0.988281 6.421875 -1.25 C 6.890625 -1.519531 7.253906 -1.890625 7.515625 -2.359375 C 7.785156 -2.835938 7.921875 -3.382812 7.921875 -4 C 7.921875 -4.625 7.785156 -5.171875 7.515625 -5.640625 C 7.253906 -6.109375 6.890625 -6.472656 6.421875 -6.734375 C 5.960938 -7.003906 5.421875 -7.140625 4.796875 -7.140625 C 4.191406 -7.140625 3.65625 -7.003906 3.1875 -6.734375 C 2.71875 -6.472656 2.347656 -6.109375 2.078125 -5.640625 C 1.816406 -5.171875 1.6875 -4.625 1.6875 -4 Z M 1.6875 -4 "/></g></g></g><g fill="#ffffff" fill-opacity="1"><g transform="translate(173.946472, 189.502562)"><g><path d="M 4.15625 0.140625 C 3.1875 0.140625 2.429688 -0.160156 1.890625 -0.765625 C 1.347656 -1.367188 1.078125 -2.203125 1.078125 -3.265625 L 1.078125 -8 L 2.0625 -8 L 2.0625 -3.328125 C 2.0625 -2.515625 2.238281 -1.894531 2.59375 -1.46875 C 2.957031 -1.050781 3.476562 -0.84375 4.15625 -0.84375 C 5.550781 -0.84375 6.25 -1.671875 6.25 -3.328125 L 6.25 -8 L 7.265625 -8 L 7.265625 -3.265625 C 7.265625 -2.203125 6.988281 -1.367188 6.4375 -0.765625 C 5.882812 -0.160156 5.125 0.140625 4.15625 0.140625 Z M 4.15625 0.140625 "/></g></g></g><g fill="#ffffff" fill-opacity="1"><g transform="translate(182.280265, 189.502562)"><g><path d="M 1.171875 0 L 1.171875 -8 L 3.875 -8 C 4.476562 -8 5.003906 -7.890625 5.453125 -7.671875 C 5.898438 -7.453125 6.242188 -7.140625 6.484375 -6.734375 C 6.722656 -6.335938 6.84375 -5.863281 6.84375 -5.3125 C 6.84375 -4.769531 6.722656 -4.296875 6.484375 -3.890625 C 6.242188 -3.492188 5.898438 -3.179688 5.453125 -2.953125 C 5.003906 -2.734375 4.476562 -2.625 3.875 -2.625 L 2.171875 -2.625 L 2.171875 0 Z M 2.171875 -3.5625 L 3.859375 -3.5625 C 5.171875 -3.5625 5.828125 -4.144531 5.828125 -5.3125 C 5.828125 -6.46875 5.171875 -7.046875 3.859375 -7.046875 L 2.171875 -7.046875 Z M 2.171875 -3.5625 "/></g></g></g></svg>