<svg xmlns="http://www.w3.org/2000/svg" xmlns:xlink="http://www.w3.org/1999/xlink" width="403" zoomAndPan="magnify" viewBox="0 0 302.25 92.249997" height="123" preserveAspectRatio="xMidYMid meet" version="1.0"><defs><g/><clipPath id="f50e629a96"><path d="M 96.410156 3.117188 L 191.636719 3.117188 L 191.636719 74.363281 L 96.410156 74.363281 Z M 96.410156 3.117188 " clip-rule="nonzero"/></clipPath><clipPath id="cbab31dd43"><path d="M 76.441406 17.683594 L 101.363281 17.683594 L 101.363281 42.605469 L 76.441406 42.605469 Z M 76.441406 17.683594 " clip-rule="nonzero"/></clipPath><clipPath id="e07bea7787"><path d="M 88.902344 17.683594 L 92.867188 26.179688 L 101.363281 30.144531 L 92.867188 34.109375 L 88.902344 42.605469 L 84.9375 34.109375 L 76.441406 30.144531 L 84.9375 26.179688 Z M 88.902344 17.683594 " clip-rule="nonzero"/></clipPath><clipPath id="82d3131a92"><path d="M 142.148438 70.203125 L 157.125 70.203125 L 157.125 85.179688 L 142.148438 85.179688 Z M 142.148438 70.203125 " clip-rule="nonzero"/></clipPath><clipPath id="f34cde1bb3"><path d="M 149.636719 70.203125 L 152.019531 75.308594 L 157.125 77.691406 L 152.019531 80.074219 L 149.636719 85.179688 L 147.253906 80.074219 L 142.148438 77.691406 L 147.253906 75.308594 Z M 149.636719 70.203125 " clip-rule="nonzero"/></clipPath><clipPath id="35d3b6e69c"><path d="M 133.957031 0 L 144.253906 0 L 144.253906 10.296875 L 133.957031 10.296875 Z M 133.957031 0 " clip-rule="nonzero"/></clipPath><clipPath id="5f56da2b83"><path d="M 139.105469 0 L 140.742188 3.511719 L 144.253906 5.148438 L 140.742188 6.785156 L 139.105469 10.296875 L 137.46875 6.785156 L 133.957031 5.148438 L 137.46875 3.511719 Z M 139.105469 0 " clip-rule="nonzero"/></clipPath></defs><g fill="#ffffff" fill-opacity="1"><g transform="translate(14.526728, 73.251199)"><g><path d="M 27.84375 0 L 22.78125 0 L 20.328125 -14.375 L 16.25 0 L 11.734375 0 L 7.671875 -14.375 L 5.21875 0 L 0.15625 0 L 4.203125 -20.84375 L 9.65625 -20.84375 L 14.015625 -6.21875 L 18.328125 -20.84375 L 23.796875 -20.84375 Z M 27.84375 0 "/></g></g></g><g fill="#ffffff" fill-opacity="1"><g transform="translate(42.502444, 73.251199)"><g><path d="M 6.4375 0 L 1.84375 0 L 1.84375 -20.84375 L 6.4375 -20.84375 Z M 6.4375 0 "/></g></g></g><g fill="#ffffff" fill-opacity="1"><g transform="translate(50.775659, 73.251199)"><g><path d="M 9.9375 -3.25 C 10.425781 -3.25 10.957031 -3.320312 11.53125 -3.46875 C 12.101562 -3.625 12.597656 -3.878906 13.015625 -4.234375 C 13.429688 -4.597656 13.640625 -5.085938 13.640625 -5.703125 C 13.640625 -6.273438 13.421875 -6.734375 12.984375 -7.078125 C 12.546875 -7.429688 11.96875 -7.71875 11.25 -7.9375 C 10.53125 -8.164062 9.75 -8.375 8.90625 -8.5625 C 8.0625 -8.757812 7.207031 -8.992188 6.34375 -9.265625 C 5.488281 -9.546875 4.703125 -9.910156 3.984375 -10.359375 C 3.265625 -10.804688 2.6875 -11.390625 2.25 -12.109375 C 1.8125 -12.828125 1.59375 -13.738281 1.59375 -14.84375 C 1.59375 -15.925781 1.816406 -16.859375 2.265625 -17.640625 C 2.710938 -18.429688 3.3125 -19.085938 4.0625 -19.609375 C 4.8125 -20.128906 5.648438 -20.515625 6.578125 -20.765625 C 7.503906 -21.023438 8.4375 -21.15625 9.375 -21.15625 C 10.8125 -21.15625 12.148438 -20.925781 13.390625 -20.46875 C 14.640625 -20.019531 15.65625 -19.3125 16.4375 -18.34375 C 17.226562 -17.375 17.644531 -16.09375 17.6875 -14.5 L 13.25 -14.5 C 13.125 -15.582031 12.742188 -16.332031 12.109375 -16.75 C 11.472656 -17.164062 10.582031 -17.375 9.4375 -17.375 C 9.007812 -17.375 8.554688 -17.300781 8.078125 -17.15625 C 7.597656 -17.019531 7.1875 -16.789062 6.84375 -16.46875 C 6.507812 -16.15625 6.34375 -15.734375 6.34375 -15.203125 C 6.34375 -14.671875 6.5625 -14.25 7 -13.9375 C 7.445312 -13.632812 8.023438 -13.378906 8.734375 -13.171875 C 9.453125 -12.972656 10.238281 -12.78125 11.09375 -12.59375 C 11.957031 -12.414062 12.8125 -12.191406 13.65625 -11.921875 C 14.5 -11.660156 15.28125 -11.296875 16 -10.828125 C 16.71875 -10.367188 17.296875 -9.769531 17.734375 -9.03125 C 18.171875 -8.300781 18.390625 -7.363281 18.390625 -6.21875 C 18.390625 -5 18.144531 -3.957031 17.65625 -3.09375 C 17.164062 -2.238281 16.503906 -1.550781 15.671875 -1.03125 C 14.847656 -0.507812 13.921875 -0.128906 12.890625 0.109375 C 11.859375 0.359375 10.8125 0.484375 9.75 0.484375 C 8.21875 0.484375 6.78125 0.222656 5.4375 -0.296875 C 4.101562 -0.816406 3.019531 -1.617188 2.1875 -2.703125 C 1.363281 -3.785156 0.941406 -5.171875 0.921875 -6.859375 L 5.578125 -6.859375 C 5.640625 -5.617188 6.097656 -4.707031 6.953125 -4.125 C 7.816406 -3.539062 8.8125 -3.25 9.9375 -3.25 Z M 9.9375 -3.25 "/></g></g></g><g fill="#ffffff" fill-opacity="1"><g transform="translate(70.079814, 73.251199)"><g><path d="M 17.9375 -10.453125 C 17.9375 -11.535156 17.648438 -12.539062 17.078125 -13.46875 C 16.503906 -14.40625 15.75 -15.15625 14.8125 -15.71875 C 13.882812 -16.289062 12.878906 -16.578125 11.796875 -16.578125 C 10.734375 -16.578125 9.734375 -16.289062 8.796875 -15.71875 C 7.859375 -15.15625 7.101562 -14.40625 6.53125 -13.46875 C 5.957031 -12.539062 5.671875 -11.535156 5.671875 -10.453125 C 5.671875 -9.390625 5.957031 -8.390625 6.53125 -7.453125 C 7.101562 -6.515625 7.859375 -5.753906 8.796875 -5.171875 C 9.734375 -4.585938 10.734375 -4.296875 11.796875 -4.296875 C 12.878906 -4.296875 13.882812 -4.585938 14.8125 -5.171875 C 15.75 -5.753906 16.503906 -6.515625 17.078125 -7.453125 C 17.648438 -8.390625 17.9375 -9.390625 17.9375 -10.453125 Z M 22.53125 -10.421875 C 22.53125 -8.992188 22.242188 -7.628906 21.671875 -6.328125 C 21.097656 -5.035156 20.316406 -3.890625 19.328125 -2.890625 C 18.335938 -1.898438 17.195312 -1.117188 15.90625 -0.546875 C 14.625 0.0234375 13.253906 0.3125 11.796875 0.3125 C 10.367188 0.3125 9.003906 0.0234375 7.703125 -0.546875 C 6.410156 -1.117188 5.269531 -1.898438 4.28125 -2.890625 C 3.289062 -3.890625 2.507812 -5.035156 1.9375 -6.328125 C 1.363281 -7.628906 1.078125 -8.992188 1.078125 -10.421875 C 1.078125 -11.867188 1.363281 -13.238281 1.9375 -14.53125 C 2.507812 -15.820312 3.289062 -16.960938 4.28125 -17.953125 C 5.269531 -18.941406 6.410156 -19.722656 7.703125 -20.296875 C 9.003906 -20.867188 10.367188 -21.15625 11.796875 -21.15625 C 13.253906 -21.15625 14.625 -20.867188 15.90625 -20.296875 C 17.195312 -19.722656 18.335938 -18.941406 19.328125 -17.953125 C 20.316406 -16.960938 21.097656 -15.820312 21.671875 -14.53125 C 22.242188 -13.238281 22.53125 -11.867188 22.53125 -10.421875 Z M 22.53125 -10.421875 "/></g></g></g><g fill="#ffffff" fill-opacity="1"><g transform="translate(93.676199, 73.251199)"><g/></g></g><g fill="#ffffff" fill-opacity="1"><g transform="translate(101.336575, 73.251199)"><g/></g></g><g fill="#ffffff" fill-opacity="1"><g transform="translate(108.996951, 73.251199)"><g/></g></g><g fill="#ffffff" fill-opacity="1"><g transform="translate(116.657328, 73.251199)"><g/></g></g><g fill="#ffffff" fill-opacity="1"><g transform="translate(124.317704, 73.251199)"><g/></g></g><g fill="#ffffff" fill-opacity="1"><g transform="translate(131.97808, 73.251199)"><g/></g></g><g fill="#ffffff" fill-opacity="1"><g transform="translate(139.638456, 73.251199)"><g/></g></g><g fill="#ffffff" fill-opacity="1"><g transform="translate(147.298832, 73.251199)"><g/></g></g><g fill="#ffffff" fill-opacity="1"><g transform="translate(154.959209, 73.251199)"><g/></g></g><g fill="#ffffff" fill-opacity="1"><g transform="translate(162.619585, 73.251199)"><g><path d="M 13.921875 -4.171875 L 13.921875 0 L 1.84375 0 L 1.84375 -20.84375 L 13.921875 -20.84375 L 13.921875 -16.671875 L 6.4375 -16.671875 L 6.4375 -12.53125 L 13.609375 -12.53125 L 13.609375 -8.375 L 6.4375 -8.375 L 6.4375 -4.171875 Z M 13.921875 -4.171875 "/></g></g></g><g fill="#ffffff" fill-opacity="1"><g transform="translate(178.369333, 73.251199)"><g><path d="M 20.296875 0 L 14.6875 0 L 10.234375 -7.234375 L 5.796875 0 L 0.1875 0 L 7.421875 -10.421875 L 0.1875 -20.84375 L 5.796875 -20.84375 L 10.234375 -13.609375 L 14.6875 -20.84375 L 20.296875 -20.84375 L 13.0625 -10.421875 Z M 20.296875 0 "/></g></g></g><g fill="#ffffff" fill-opacity="1"><g transform="translate(198.837866, 73.251199)"><g><path d="M 6.4375 -7.453125 L 6.4375 0 L 1.84375 0 L 1.84375 -20.84375 L 9.65625 -20.84375 C 10.78125 -20.84375 11.828125 -20.5625 12.796875 -20 C 13.765625 -19.4375 14.546875 -18.65625 15.140625 -17.65625 C 15.734375 -16.65625 16.03125 -15.488281 16.03125 -14.15625 C 16.03125 -12.75 15.734375 -11.546875 15.140625 -10.546875 C 14.546875 -9.546875 13.765625 -8.78125 12.796875 -8.25 C 11.828125 -7.71875 10.78125 -7.453125 9.65625 -7.453125 Z M 8.890625 -17.234375 L 6.4375 -17.234375 L 6.4375 -11.0625 L 8.890625 -11.0625 C 9.566406 -11.0625 10.195312 -11.328125 10.78125 -11.859375 C 11.363281 -12.390625 11.65625 -13.15625 11.65625 -14.15625 C 11.65625 -15.125 11.363281 -15.878906 10.78125 -16.421875 C 10.195312 -16.960938 9.566406 -17.234375 8.890625 -17.234375 Z M 8.890625 -17.234375 "/></g></g></g><g fill="#ffffff" fill-opacity="1"><g transform="translate(215.323006, 73.251199)"><g><path d="M 6.4375 -7.453125 L 6.4375 0 L 1.84375 0 L 1.84375 -20.84375 L 9.65625 -20.84375 C 10.78125 -20.84375 11.828125 -20.5625 12.796875 -20 C 13.765625 -19.4375 14.546875 -18.65625 15.140625 -17.65625 C 15.734375 -16.65625 16.03125 -15.488281 16.03125 -14.15625 C 16.03125 -13 15.816406 -11.96875 15.390625 -11.0625 C 14.960938 -10.164062 14.390625 -9.429688 13.671875 -8.859375 C 12.953125 -8.285156 12.15625 -7.890625 11.28125 -7.671875 L 17.265625 0 L 11.4375 0 L 6.46875 -7.453125 Z M 8.890625 -17.234375 L 6.4375 -17.234375 L 6.4375 -11.0625 L 8.890625 -11.0625 C 9.566406 -11.0625 10.195312 -11.328125 10.78125 -11.859375 C 11.363281 -12.390625 11.65625 -13.15625 11.65625 -14.15625 C 11.65625 -15.125 11.363281 -15.878906 10.78125 -16.421875 C 10.195312 -16.960938 9.566406 -17.234375 8.890625 -17.234375 Z M 8.890625 -17.234375 "/></g></g></g><g fill="#ffffff" fill-opacity="1"><g transform="translate(232.206482, 73.251199)"><g><path d="M 13.921875 -4.171875 L 13.921875 0 L 1.84375 0 L 1.84375 -20.84375 L 13.921875 -20.84375 L 13.921875 -16.671875 L 6.4375 -16.671875 L 6.4375 -12.53125 L 13.609375 -12.53125 L 13.609375 -8.375 L 6.4375 -8.375 L 6.4375 -4.171875 Z M 13.921875 -4.171875 "/></g></g></g><g fill="#ffffff" fill-opacity="1"><g transform="translate(247.95623, 73.251199)"><g><path d="M 9.9375 -3.25 C 10.425781 -3.25 10.957031 -3.320312 11.53125 -3.46875 C 12.101562 -3.625 12.597656 -3.878906 13.015625 -4.234375 C 13.429688 -4.597656 13.640625 -5.085938 13.640625 -5.703125 C 13.640625 -6.273438 13.421875 -6.734375 12.984375 -7.078125 C 12.546875 -7.429688 11.96875 -7.71875 11.25 -7.9375 C 10.53125 -8.164062 9.75 -8.375 8.90625 -8.5625 C 8.0625 -8.757812 7.207031 -8.992188 6.34375 -9.265625 C 5.488281 -9.546875 4.703125 -9.910156 3.984375 -10.359375 C 3.265625 -10.804688 2.6875 -11.390625 2.25 -12.109375 C 1.8125 -12.828125 1.59375 -13.738281 1.59375 -14.84375 C 1.59375 -15.925781 1.816406 -16.859375 2.265625 -17.640625 C 2.710938 -18.429688 3.3125 -19.085938 4.0625 -19.609375 C 4.8125 -20.128906 5.648438 -20.515625 6.578125 -20.765625 C 7.503906 -21.023438 8.4375 -21.15625 9.375 -21.15625 C 10.8125 -21.15625 12.148438 -20.925781 13.390625 -20.46875 C 14.640625 -20.019531 15.65625 -19.3125 16.4375 -18.34375 C 17.226562 -17.375 17.644531 -16.09375 17.6875 -14.5 L 13.25 -14.5 C 13.125 -15.582031 12.742188 -16.332031 12.109375 -16.75 C 11.472656 -17.164062 10.582031 -17.375 9.4375 -17.375 C 9.007812 -17.375 8.554688 -17.300781 8.078125 -17.15625 C 7.597656 -17.019531 7.1875 -16.789062 6.84375 -16.46875 C 6.507812 -16.15625 6.34375 -15.734375 6.34375 -15.203125 C 6.34375 -14.671875 6.5625 -14.25 7 -13.9375 C 7.445312 -13.632812 8.023438 -13.378906 8.734375 -13.171875 C 9.453125 -12.972656 10.238281 -12.78125 11.09375 -12.59375 C 11.957031 -12.414062 12.8125 -12.191406 13.65625 -11.921875 C 14.5 -11.660156 15.28125 -11.296875 16 -10.828125 C 16.71875 -10.367188 17.296875 -9.769531 17.734375 -9.03125 C 18.171875 -8.300781 18.390625 -7.363281 18.390625 -6.21875 C 18.390625 -5 18.144531 -3.957031 17.65625 -3.09375 C 17.164062 -2.238281 16.503906 -1.550781 15.671875 -1.03125 C 14.847656 -0.507812 13.921875 -0.128906 12.890625 0.109375 C 11.859375 0.359375 10.8125 0.484375 9.75 0.484375 C 8.21875 0.484375 6.78125 0.222656 5.4375 -0.296875 C 4.101562 -0.816406 3.019531 -1.617188 2.1875 -2.703125 C 1.363281 -3.785156 0.941406 -5.171875 0.921875 -6.859375 L 5.578125 -6.859375 C 5.640625 -5.617188 6.097656 -4.707031 6.953125 -4.125 C 7.816406 -3.539062 8.8125 -3.25 9.9375 -3.25 Z M 9.9375 -3.25 "/></g></g></g><g fill="#ffffff" fill-opacity="1"><g transform="translate(267.260386, 73.251199)"><g><path d="M 9.9375 -3.25 C 10.425781 -3.25 10.957031 -3.320312 11.53125 -3.46875 C 12.101562 -3.625 12.597656 -3.878906 13.015625 -4.234375 C 13.429688 -4.597656 13.640625 -5.085938 13.640625 -5.703125 C 13.640625 -6.273438 13.421875 -6.734375 12.984375 -7.078125 C 12.546875 -7.429688 11.96875 -7.71875 11.25 -7.9375 C 10.53125 -8.164062 9.75 -8.375 8.90625 -8.5625 C 8.0625 -8.757812 7.207031 -8.992188 6.34375 -9.265625 C 5.488281 -9.546875 4.703125 -9.910156 3.984375 -10.359375 C 3.265625 -10.804688 2.6875 -11.390625 2.25 -12.109375 C 1.8125 -12.828125 1.59375 -13.738281 1.59375 -14.84375 C 1.59375 -15.925781 1.816406 -16.859375 2.265625 -17.640625 C 2.710938 -18.429688 3.3125 -19.085938 4.0625 -19.609375 C 4.8125 -20.128906 5.648438 -20.515625 6.578125 -20.765625 C 7.503906 -21.023438 8.4375 -21.15625 9.375 -21.15625 C 10.8125 -21.15625 12.148438 -20.925781 13.390625 -20.46875 C 14.640625 -20.019531 15.65625 -19.3125 16.4375 -18.34375 C 17.226562 -17.375 17.644531 -16.09375 17.6875 -14.5 L 13.25 -14.5 C 13.125 -15.582031 12.742188 -16.332031 12.109375 -16.75 C 11.472656 -17.164062 10.582031 -17.375 9.4375 -17.375 C 9.007812 -17.375 8.554688 -17.300781 8.078125 -17.15625 C 7.597656 -17.019531 7.1875 -16.789062 6.84375 -16.46875 C 6.507812 -16.15625 6.34375 -15.734375 6.34375 -15.203125 C 6.34375 -14.671875 6.5625 -14.25 7 -13.9375 C 7.445312 -13.632812 8.023438 -13.378906 8.734375 -13.171875 C 9.453125 -12.972656 10.238281 -12.78125 11.09375 -12.59375 C 11.957031 -12.414062 12.8125 -12.191406 13.65625 -11.921875 C 14.5 -11.660156 15.28125 -11.296875 16 -10.828125 C 16.71875 -10.367188 17.296875 -9.769531 17.734375 -9.03125 C 18.171875 -8.300781 18.390625 -7.363281 18.390625 -6.21875 C 18.390625 -5 18.144531 -3.957031 17.65625 -3.09375 C 17.164062 -2.238281 16.503906 -1.550781 15.671875 -1.03125 C 14.847656 -0.507812 13.921875 -0.128906 12.890625 0.109375 C 11.859375 0.359375 10.8125 0.484375 9.75 0.484375 C 8.21875 0.484375 6.78125 0.222656 5.4375 -0.296875 C 4.101562 -0.816406 3.019531 -1.617188 2.1875 -2.703125 C 1.363281 -3.785156 0.941406 -5.171875 0.921875 -6.859375 L 5.578125 -6.859375 C 5.640625 -5.617188 6.097656 -4.707031 6.953125 -4.125 C 7.816406 -3.539062 8.8125 -3.25 9.9375 -3.25 Z M 9.9375 -3.25 "/></g></g></g><g clip-path="url(#f50e629a96)"><path fill="#ffffff" d="M 189.9375 23.027344 C 189.226562 21.914062 188.28125 21.015625 187.140625 20.320312 C 186.5 19.929688 185.863281 19.882812 185.195312 20.195312 C 184.914062 20.328125 184.644531 20.492188 184.378906 20.652344 C 180.457031 23.035156 176.539062 25.421875 172.621094 27.804688 C 166.328125 31.636719 160.03125 35.464844 153.738281 39.292969 C 153.554688 39.402344 153.367188 39.503906 153.085938 39.664062 C 153.085938 39.367188 153.085938 39.1875 153.085938 39.011719 C 153.089844 38.273438 153.097656 37.535156 153.089844 36.800781 C 153.082031 35.953125 153.042969 35.105469 153.042969 34.257812 C 153.035156 32.308594 152.191406 30.789062 150.675781 29.609375 C 150.511719 29.480469 150.347656 29.347656 150.144531 29.183594 C 150.378906 28.996094 150.546875 28.851562 150.71875 28.71875 C 156.199219 24.394531 161.683594 20.070312 167.164062 15.746094 C 168.277344 14.867188 169.382812 13.976562 170.507812 13.113281 C 171.214844 12.574219 171.472656 11.882812 171.316406 11.023438 C 171.246094 10.644531 171.175781 10.261719 171.046875 9.898438 C 170.015625 6.972656 168.078125 4.855469 165.292969 3.503906 C 165.03125 3.378906 164.742188 3.292969 164.464844 3.199219 C 163.949219 3.027344 163.445312 3.046875 162.980469 3.355469 C 162.644531 3.578125 162.296875 3.792969 161.996094 4.0625 C 160.734375 5.191406 159.464844 6.316406 158.238281 7.484375 C 156.652344 8.996094 155.078125 10.523438 153.539062 12.085938 C 151.691406 13.960938 149.886719 15.878906 148.050781 17.769531 C 146.125 19.753906 144.160156 21.695312 142.417969 23.847656 C 141.769531 24.644531 141.152344 25.472656 140.464844 26.359375 C 140.398438 26.359375 140.269531 26.363281 140.144531 26.355469 C 138.929688 26.296875 137.714844 26.203125 136.5 26.1875 C 129.261719 26.089844 122.183594 27.164062 115.238281 29.167969 C 111.546875 30.230469 107.96875 31.585938 104.589844 33.433594 C 102.96875 34.316406 101.429688 35.320312 100.039062 36.546875 C 99.277344 37.21875 98.558594 37.941406 98.007812 38.796875 C 96.789062 40.703125 96.40625 42.730469 97.195312 44.90625 C 97.269531 45.113281 97.355469 45.320312 97.421875 45.53125 C 97.753906 46.601562 98.175781 47.65625 98.394531 48.75 C 99.019531 51.894531 99.582031 55.046875 100.128906 58.207031 C 100.769531 61.917969 101.035156 65.664062 100.933594 69.429688 C 100.921875 69.9375 101.054688 70.390625 101.4375 70.726562 C 101.722656 70.976562 102.027344 71.246094 102.371094 71.390625 C 103.183594 71.734375 104.007812 72.0625 104.855469 72.300781 C 108.722656 73.378906 112.671875 73.972656 116.675781 74.160156 C 122.328125 74.425781 127.902344 73.90625 133.390625 72.523438 C 139.304688 71.027344 144.824219 68.648438 149.816406 65.113281 C 151.21875 64.121094 152.554688 63.050781 153.796875 61.867188 C 154.054688 61.621094 154.324219 61.304688 154.40625 60.976562 C 154.5625 60.375 154.640625 59.75 154.484375 59.117188 C 154.34375 58.527344 154.203125 57.929688 154.136719 57.328125 C 153.953125 55.644531 153.824219 53.957031 153.636719 52.273438 C 153.585938 51.820312 153.753906 51.625 154.125 51.425781 C 165.664062 45.347656 177.195312 39.253906 188.726562 33.164062 C 188.871094 33.085938 189.023438 33.003906 189.179688 32.96875 C 189.921875 32.816406 190.429688 32.347656 190.808594 31.738281 C 191.371094 30.828125 191.691406 29.839844 191.699219 28.757812 C 191.710938 26.664062 191.046875 24.769531 189.9375 23.027344 Z M 145.367188 24.289062 C 146.828125 22.707031 148.320312 21.152344 149.808594 19.597656 C 151.554688 17.777344 153.296875 15.953125 155.070312 14.160156 C 156.6875 12.523438 158.328125 10.910156 159.988281 9.320312 C 161.160156 8.199219 162.386719 7.140625 163.570312 6.035156 C 163.855469 5.773438 164.09375 5.707031 164.445312 5.894531 C 166.414062 6.941406 167.820312 8.480469 168.609375 10.570312 C 168.847656 11.203125 168.828125 11.210938 168.300781 11.628906 C 161.550781 16.953125 154.796875 22.277344 148.050781 27.609375 C 147.742188 27.851562 147.488281 27.894531 147.109375 27.777344 C 146.035156 27.445312 144.945312 27.175781 143.863281 26.882812 C 143.726562 26.84375 143.585938 26.808594 143.320312 26.738281 C 144.046875 25.863281 144.671875 25.042969 145.367188 24.289062 Z M 99.847656 40.707031 C 100.34375 39.902344 100.957031 39.195312 101.660156 38.5625 C 102.800781 37.53125 104.074219 36.6875 105.40625 35.929688 C 108.417969 34.222656 111.621094 32.972656 114.921875 31.957031 C 120.082031 30.367188 125.355469 29.371094 130.738281 28.945312 C 133.921875 28.695312 137.105469 28.652344 140.285156 28.972656 C 142.324219 29.179688 144.347656 29.492188 146.285156 30.1875 C 147.109375 30.484375 147.90625 30.886719 148.671875 31.320312 C 149.109375 31.570312 149.496094 31.941406 149.835938 32.324219 C 150.464844 33.027344 150.589844 33.855469 150.273438 34.75 C 150.046875 35.382812 149.683594 35.933594 149.257812 36.445312 C 148.597656 37.246094 147.816406 37.921875 146.988281 38.542969 C 146.105469 39.203125 145.179688 39.800781 144.152344 40.265625 C 144.234375 40.164062 144.3125 40.054688 144.40625 39.960938 C 145.515625 38.859375 146.234375 37.550781 146.402344 35.992188 C 146.625 33.976562 145.835938 32.570312 144.007812 31.785156 C 142.65625 31.207031 141.226562 30.933594 139.761719 30.863281 C 137.882812 30.773438 136.007812 30.867188 134.136719 31.09375 C 133.988281 31.113281 133.84375 31.171875 133.625 31.230469 C 133.917969 31.613281 134.234375 31.585938 134.515625 31.617188 C 135.359375 31.699219 136.203125 31.75 137.046875 31.832031 C 138.292969 31.953125 139.539062 32.074219 140.753906 32.402344 C 141.691406 32.652344 142.550781 33.070312 143.382812 33.542969 C 144.261719 34.035156 144.578125 34.855469 144.402344 35.839844 C 144.21875 36.875 143.753906 37.753906 143.019531 38.492188 C 141.84375 39.667969 140.585938 40.738281 139.058594 41.460938 C 138.628906 41.664062 138.25 41.96875 137.84375 42.21875 C 137.339844 42.53125 136.851562 42.863281 136.332031 43.136719 C 133.78125 44.460938 131.097656 45.367188 128.269531 45.914062 C 124.082031 46.722656 119.871094 47.289062 115.605469 47.390625 C 112.078125 47.472656 108.566406 47.292969 105.125 46.445312 C 103.976562 46.164062 102.847656 45.8125 101.8125 45.226562 C 101.273438 44.921875 100.738281 44.574219 100.285156 44.152344 C 99.210938 43.164062 99.082031 41.949219 99.847656 40.707031 Z M 151.679688 60.394531 C 149.480469 62.351562 147.089844 64.035156 144.523438 65.460938 C 139.828125 68.074219 134.808594 69.785156 129.539062 70.773438 C 124.765625 71.664062 119.957031 71.898438 115.121094 71.523438 C 111.84375 71.269531 108.617188 70.710938 105.441406 69.851562 C 104.808594 69.679688 104.164062 69.527344 103.503906 69.359375 C 103.503906 68.976562 103.503906 68.628906 103.5 68.285156 C 103.476562 64.851562 103.234375 61.441406 102.671875 58.050781 C 102.117188 54.6875 101.605469 51.320312 100.839844 47.996094 C 100.816406 47.894531 100.804688 47.785156 100.78125 47.625 C 100.90625 47.652344 100.992188 47.65625 101.0625 47.6875 C 103.222656 48.707031 105.515625 49.214844 107.863281 49.535156 C 111.9375 50.089844 116.019531 50.039062 120.105469 49.664062 C 126.277344 49.105469 132.304688 47.84375 138.152344 45.785156 C 141.09375 44.746094 143.945312 43.5 146.609375 41.863281 C 147.898438 41.074219 149.125 40.191406 150.222656 39.140625 C 150.285156 39.078125 150.359375 39.027344 150.429688 38.96875 C 150.46875 38.984375 150.511719 38.996094 150.550781 39.007812 C 150.550781 39.679688 150.5625 40.355469 150.542969 41.03125 C 150.542969 41.136719 150.441406 41.257812 150.355469 41.339844 C 150.25 41.4375 150.113281 41.5 149.984375 41.578125 C 142.761719 45.972656 135.539062 50.367188 128.316406 54.761719 C 127.796875 55.078125 127.285156 55.40625 126.746094 55.683594 C 126.21875 55.953125 125.925781 56.371094 125.863281 56.933594 C 125.59375 59.351562 126.023438 61.59375 127.605469 63.527344 C 128.328125 64.410156 129.289062 64.605469 130.3125 64.0625 C 132.765625 62.753906 135.214844 61.4375 137.671875 60.132812 C 141.933594 57.875 146.203125 55.625 150.472656 53.367188 C 150.664062 53.265625 150.859375 53.171875 151.125 53.039062 C 151.167969 53.390625 151.207031 53.671875 151.238281 53.957031 C 151.382812 55.3125 151.519531 56.667969 151.683594 58.019531 C 151.742188 58.511719 151.851562 59.003906 151.980469 59.480469 C 152.082031 59.871094 151.980469 60.128906 151.679688 60.394531 Z M 188.96875 29.738281 C 188.890625 30.125 188.628906 30.351562 188.277344 30.535156 C 184.609375 32.460938 180.945312 34.402344 177.28125 36.339844 C 161.53125 44.660156 145.78125 52.980469 130.03125 61.300781 C 129.824219 61.410156 129.613281 61.515625 129.367188 61.640625 C 128.796875 60.828125 128.4375 59.976562 128.355469 59.019531 C 128.324219 58.691406 128.355469 58.359375 128.339844 58.027344 C 128.328125 57.773438 128.441406 57.640625 128.65625 57.507812 C 144.996094 47.578125 161.332031 37.640625 177.667969 27.703125 C 180.296875 26.101562 182.925781 24.503906 185.554688 22.902344 C 186.054688 22.601562 186.082031 22.574219 186.507812 22.976562 C 186.972656 23.417969 187.457031 23.871094 187.800781 24.402344 C 188.625 25.671875 189.15625 27.0625 189.15625 28.601562 C 189.15625 28.980469 189.046875 29.363281 188.96875 29.738281 Z M 188.96875 29.738281 " fill-opacity="1" fill-rule="nonzero"/></g><path fill="#ffffff" d="M 115.445312 41.523438 C 115.851562 41.828125 116.320312 42.070312 116.796875 42.253906 C 117.59375 42.5625 118.441406 42.636719 119.238281 42.585938 C 121.347656 42.511719 123.363281 42.167969 125.378906 41.828125 C 127.0625 41.546875 128.671875 41.050781 130.203125 40.296875 C 130.9375 39.9375 131.617188 39.488281 132.144531 38.859375 C 133.929688 36.722656 132.988281 33.675781 130.332031 33.140625 C 129.550781 32.984375 128.769531 32.871094 127.972656 32.949219 C 127.277344 33.019531 126.578125 33.082031 125.886719 33.195312 C 122.933594 33.667969 120.03125 34.316406 117.320312 35.65625 C 116.503906 36.0625 115.800781 36.550781 115.425781 37.421875 C 115.378906 37.535156 115.289062 37.636719 115.214844 37.742188 C 114.878906 38.199219 114.683594 38.710938 114.601562 39.265625 C 114.464844 40.167969 114.703125 40.964844 115.445312 41.523438 Z M 117.21875 39.144531 C 117.519531 38.710938 117.957031 38.433594 118.410156 38.183594 C 119.515625 37.582031 120.6875 37.136719 121.910156 36.847656 C 123.808594 36.402344 125.710938 35.972656 127.613281 35.550781 C 128.304688 35.398438 129 35.460938 129.695312 35.59375 C 130.710938 35.789062 130.664062 36.691406 130.230469 37.171875 C 129.976562 37.457031 129.65625 37.695312 129.328125 37.886719 C 128.378906 38.429688 127.355469 38.800781 126.292969 39.042969 C 123.976562 39.570312 121.628906 39.917969 118.964844 40.074219 C 118.660156 40.039062 118.074219 39.996094 117.496094 39.886719 C 117.003906 39.792969 116.929688 39.5625 117.21875 39.144531 Z M 117.21875 39.144531 " fill-opacity="1" fill-rule="nonzero"/><path fill="#ffffff" d="M 104.078125 44.125 C 104.410156 43.871094 104.484375 43.40625 104.257812 42.976562 C 104.222656 42.910156 104.1875 42.84375 104.140625 42.789062 C 103.925781 42.539062 103.90625 42.253906 104.015625 41.960938 C 104.1875 41.496094 104.335938 41.015625 104.5625 40.578125 C 105.230469 39.28125 106.308594 38.363281 107.476562 37.546875 C 108.53125 36.808594 109.605469 36.097656 110.671875 35.371094 C 110.773438 35.300781 110.863281 35.214844 110.992188 35.109375 C 110.507812 35.128906 110.226562 35.21875 109.605469 35.558594 C 108.71875 36.042969 107.824219 36.519531 106.949219 37.023438 C 105.507812 37.84375 104.21875 38.839844 103.292969 40.238281 C 102.789062 40.996094 102.390625 41.804688 102.402344 42.75 C 102.410156 43.242188 102.519531 43.703125 102.910156 44.042969 C 103.261719 44.355469 103.746094 44.378906 104.078125 44.125 Z M 104.078125 44.125 " fill-opacity="1" fill-rule="nonzero"/><path fill="#ffffff" d="M 137.855469 39.605469 C 138.015625 39.601562 138.195312 39.585938 138.332031 39.511719 C 138.769531 39.277344 139.199219 39.03125 139.613281 38.761719 C 139.886719 38.582031 140.015625 38.289062 140.035156 37.960938 C 140.042969 37.371094 139.480469 36.929688 138.902344 37.09375 C 138.714844 37.144531 138.519531 37.246094 138.382812 37.382812 C 138.007812 37.761719 137.660156 38.164062 137.3125 38.570312 C 137.144531 38.765625 137.117188 39.007812 137.226562 39.242188 C 137.347656 39.503906 137.578125 39.617188 137.855469 39.605469 Z M 137.855469 39.605469 " fill-opacity="1" fill-rule="nonzero"/><g clip-path="url(#cbab31dd43)"><g clip-path="url(#e07bea7787)"><path fill="#ffffff" d="M 76.441406 17.683594 L 101.363281 17.683594 L 101.363281 42.605469 L 76.441406 42.605469 Z M 76.441406 17.683594 " fill-opacity="1" fill-rule="nonzero"/></g></g><g clip-path="url(#82d3131a92)"><g clip-path="url(#f34cde1bb3)"><path fill="#ffffff" d="M 142.148438 70.203125 L 157.125 70.203125 L 157.125 85.179688 L 142.148438 85.179688 Z M 142.148438 70.203125 " fill-opacity="1" fill-rule="nonzero"/></g></g><g clip-path="url(#35d3b6e69c)"><g clip-path="url(#5f56da2b83)"><path fill="#ffffff" d="M 133.957031 0 L 144.253906 0 L 144.253906 10.296875 L 133.957031 10.296875 Z M 133.957031 0 " fill-opacity="1" fill-rule="nonzero"/></g></g></svg>