<svg xmlns="http://www.w3.org/2000/svg" xmlns:xlink="http://www.w3.org/1999/xlink" width="353" zoomAndPan="magnify" viewBox="0 0 264.75 151.500001" height="202" preserveAspectRatio="xMidYMid meet" version="1.0"><defs><g/><clipPath id="7b9699fc1c"><path d="M 72.0625 0 L 146 0 L 146 91 L 72.0625 91 Z M 72.0625 0 " clip-rule="nonzero"/></clipPath><clipPath id="1253f560ed"><path d="M 128 2 L 191.667969 2 L 191.667969 88 L 128 88 Z M 128 2 " clip-rule="nonzero"/></clipPath></defs><g clip-path="url(#7b9699fc1c)"><path fill="#ffffff" d="M 138.660156 59.660156 L 128.542969 50.105469 C 128.542969 50.105469 135.59375 32.585938 138.660156 27.101562 C 139.972656 24.753906 141.539062 21.660156 142.441406 18.242188 C 142.523438 18.257812 142.605469 18.265625 142.6875 18.265625 C 144.007812 18.265625 145.078125 16.34375 145.078125 13.976562 C 145.078125 12.199219 144.472656 10.671875 143.613281 10.023438 C 143.613281 10.023438 142.414062 10.902344 142.339844 12.632812 C 142.339844 12.632812 142.007812 10.75 143.511719 9.136719 C 143.257812 7.238281 142.796875 6.125 141.664062 4.757812 C 139.652344 2.328125 136.574219 1.515625 131.902344 1.304688 C 127.519531 1.101562 124.359375 0.582031 120.652344 0.179688 C 119.375 0.0390625 119.917969 2.492188 120.261719 3.085938 C 120.953125 4.285156 121.933594 4.679688 125.421875 5.707031 C 125.421875 5.707031 122.628906 5.703125 119.773438 4.097656 C 119.125 5.265625 118.769531 6.800781 118.644531 8.546875 C 120.933594 10.90625 120.441406 13.710938 120.441406 13.710938 C 120.328125 11.207031 118.597656 9.933594 118.597656 9.933594 C 117.664062 10.519531 117 12.109375 117 13.976562 C 117 16.34375 118.070312 18.265625 119.390625 18.265625 C 119.515625 18.265625 119.640625 18.246094 119.761719 18.214844 C 120.792969 22.136719 122.414062 25.808594 124.21875 27.988281 C 123.261719 28.910156 122.347656 29.792969 121.496094 30.453125 C 126.863281 30.207031 131.039062 33.917969 131.039062 33.917969 C 131.039062 33.917969 123.613281 29.402344 117.863281 32.726562 C 109.894531 37.328125 101.25 33.917969 101.25 33.917969 C 101.25 33.917969 109.058594 35.324219 117.332031 31.480469 C 117.507812 31.398438 117.683594 31.324219 117.859375 31.253906 C 113.527344 29.585938 109.507812 27.078125 99.042969 32.15625 C 99.042969 32.15625 96.328125 33.296875 94.777344 35.703125 C 94.777344 35.703125 95.203125 33.511719 97.570312 31.539062 C 95.492188 30.804688 91.582031 29.914062 88.21875 31.957031 C 88.21875 31.957031 85.503906 33.097656 83.953125 35.503906 C 83.953125 35.503906 85.128906 32.578125 88.425781 30.453125 C 88.921875 27.476562 90.464844 20.785156 94.703125 16.675781 C 94.902344 16.480469 95.082031 16.316406 95.253906 16.167969 C 93.890625 16.425781 92.789062 16.964844 92.789062 16.964844 C 94.996094 14.917969 96.976562 15.742188 98.417969 15.617188 C 100.125 15.46875 102.171875 16.339844 103.214844 16.1875 C 104.613281 15.984375 106.8125 15.742188 107.355469 15.441406 C 108.859375 14.601562 107.828125 12.878906 106.644531 12.824219 C 105.101562 12.753906 109.484375 12.871094 109.363281 11.097656 C 109.175781 8.355469 109.484375 7.484375 108.675781 6.40625 C 108.3125 5.925781 104.617188 2.566406 103.484375 2.570312 C 100.417969 2.578125 95.742188 5.441406 93.226562 6.574219 C 91.101562 7.53125 90.125 9.460938 89.1875 10.992188 C 87.398438 13.910156 72.066406 33 72.222656 38.78125 C 72.390625 45.066406 84.824219 51.546875 97.425781 47.34375 C 97.425781 47.34375 100.421875 45.953125 102.089844 44.714844 C 102.089844 44.714844 100.292969 46.800781 98.078125 48.183594 C 98.785156 49.085938 99.632812 50.257812 100.570312 51.617188 C 103.566406 55.371094 109.085938 61.238281 116.203125 64.152344 C 116.203125 64.152344 112.386719 63.675781 107.097656 61.5625 C 108.289062 63.433594 109.488281 65.328125 110.648438 67.152344 C 112.070312 69.398438 113.910156 71.355469 116.085938 72.886719 C 117.949219 74.199219 119.988281 75.375 122.183594 76.273438 C 122.183594 76.273438 119.433594 75.929688 115.367188 74.535156 C 116.601562 76.429688 117.640625 77.96875 118.363281 78.929688 C 120.152344 81.304688 123.089844 83.527344 122.296875 90.523438 L 138.660156 59.660156 " fill-opacity="1" fill-rule="nonzero"/></g><g clip-path="url(#1253f560ed)"><path fill="#ffffff" d="M 174.617188 10.992188 C 173.679688 9.460938 172.699219 7.53125 170.578125 6.574219 C 168.0625 5.441406 163.382812 2.578125 160.316406 2.570312 C 159.1875 2.566406 155.488281 5.925781 155.125 6.40625 C 154.316406 7.484375 154.625 8.355469 154.4375 11.097656 C 154.316406 12.871094 158.699219 12.753906 157.160156 12.824219 C 155.972656 12.878906 154.941406 14.601562 156.449219 15.441406 C 156.992188 15.742188 159.191406 15.984375 160.589844 16.1875 C 161.632812 16.339844 163.679688 15.46875 165.386719 15.617188 C 166.828125 15.742188 168.804688 14.917969 171.011719 16.964844 C 171.011719 16.964844 169.910156 16.425781 168.550781 16.167969 C 168.722656 16.316406 168.902344 16.480469 169.097656 16.675781 C 173.335938 20.785156 174.878906 27.476562 175.375 30.453125 C 178.671875 32.578125 179.851562 35.503906 179.851562 35.503906 C 178.300781 33.097656 175.585938 31.957031 175.585938 31.957031 C 172.21875 29.914062 168.308594 30.804688 166.234375 31.539062 C 168.601562 33.511719 169.027344 35.703125 169.027344 35.703125 C 167.472656 33.296875 164.757812 32.15625 164.757812 32.15625 C 160.085938 29.886719 156.695312 29.132812 153.992188 29.140625 L 151.90625 32.832031 C 158.746094 34.949219 164.472656 33.917969 164.472656 33.917969 C 164.472656 33.917969 158.027344 36.457031 151.136719 34.191406 L 142.78125 48.980469 L 151.585938 57.410156 L 128.136719 83.996094 C 128.136719 83.996094 145.578125 91.820312 157.527344 84.421875 C 149.503906 77.078125 148.710938 73.460938 149.84375 69.398438 C 151.386719 63.886719 160.828125 49.316406 160.828125 49.316406 C 173.433594 53.515625 191.410156 45.066406 191.582031 38.78125 C 191.734375 33 176.402344 13.910156 174.617188 10.992188 " fill-opacity="1" fill-rule="nonzero"/></g><g fill="#ffffff" fill-opacity="1"><g transform="translate(27.561298, 122.109594)"><g><path d="M 2.09375 -18.8125 L 7.90625 -18.8125 L 17.3125 -5.546875 L 17.3125 -18.8125 L 21.84375 -18.8125 L 21.84375 0 L 16.109375 0 L 6.625 -13.390625 L 6.625 0 L 2.09375 0 Z M 2.09375 -18.8125 "/></g></g></g><g fill="#ffffff" fill-opacity="1"><g transform="translate(52.794841, 122.109594)"><g><path d="M 12.359375 -19.296875 C 14.671875 -19.296875 16.664062 -18.882812 18.34375 -18.0625 C 20.019531 -17.25 21.3125 -16.097656 22.21875 -14.609375 C 23.132812 -13.128906 23.59375 -11.394531 23.59375 -9.40625 C 23.59375 -7.414062 23.132812 -5.675781 22.21875 -4.1875 C 21.3125 -2.707031 20.019531 -1.554688 18.34375 -0.734375 C 16.664062 0.0859375 14.671875 0.5 12.359375 0.5 C 10.054688 0.5 8.054688 0.0859375 6.359375 -0.734375 C 4.671875 -1.554688 3.367188 -2.707031 2.453125 -4.1875 C 1.546875 -5.675781 1.09375 -7.414062 1.09375 -9.40625 C 1.09375 -11.394531 1.546875 -13.128906 2.453125 -14.609375 C 3.367188 -16.097656 4.671875 -17.25 6.359375 -18.0625 C 8.054688 -18.882812 10.054688 -19.296875 12.359375 -19.296875 Z M 12.359375 -15.4375 C 10.472656 -15.4375 8.984375 -14.898438 7.890625 -13.828125 C 6.804688 -12.765625 6.265625 -11.289062 6.265625 -9.40625 C 6.265625 -7.519531 6.804688 -6.039062 7.890625 -4.96875 C 8.984375 -3.90625 10.472656 -3.375 12.359375 -3.375 C 14.242188 -3.375 15.722656 -3.90625 16.796875 -4.96875 C 17.878906 -6.039062 18.421875 -7.519531 18.421875 -9.40625 C 18.421875 -11.300781 17.878906 -12.78125 16.796875 -13.84375 C 15.722656 -14.90625 14.242188 -15.4375 12.359375 -15.4375 Z M 12.359375 -15.4375 "/></g></g></g><g fill="#ffffff" fill-opacity="1"><g transform="translate(78.77967, 122.109594)"><g/></g></g><g fill="#ffffff" fill-opacity="1"><g transform="translate(89.583172, 122.109594)"><g><path d="M 2.09375 0 L 2.09375 -18.8125 L 14.25 -18.8125 C 18.476562 -18.8125 20.59375 -17.25 20.59375 -14.125 C 20.59375 -13.21875 20.375 -12.410156 19.9375 -11.703125 C 19.507812 -10.992188 18.875 -10.425781 18.03125 -10 C 20.207031 -9.3125 21.296875 -7.765625 21.296875 -5.359375 C 21.296875 -3.734375 20.769531 -2.429688 19.71875 -1.453125 C 18.664062 -0.484375 17.160156 0 15.203125 0 Z M 6.8125 -7.984375 L 6.8125 -3.859375 L 13.078125 -3.859375 C 14.203125 -3.859375 15.03125 -3.96875 15.5625 -4.1875 C 16.101562 -4.414062 16.375 -4.953125 16.375 -5.796875 C 16.375 -6.609375 16.101562 -7.175781 15.5625 -7.5 C 15.03125 -7.820312 14.203125 -7.984375 13.078125 -7.984375 Z M 6.8125 -14.953125 L 6.8125 -11.265625 L 12.390625 -11.265625 C 13.503906 -11.265625 14.328125 -11.390625 14.859375 -11.640625 C 15.398438 -11.890625 15.671875 -12.414062 15.671875 -13.21875 C 15.671875 -13.9375 15.398438 -14.40625 14.859375 -14.625 C 14.328125 -14.84375 13.503906 -14.953125 12.390625 -14.953125 Z M 6.8125 -14.953125 "/></g></g></g><g fill="#ffffff" fill-opacity="1"><g transform="translate(113.262316, 122.109594)"><g><path d="M 12.359375 -19.296875 C 14.671875 -19.296875 16.664062 -18.882812 18.34375 -18.0625 C 20.019531 -17.25 21.3125 -16.097656 22.21875 -14.609375 C 23.132812 -13.128906 23.59375 -11.394531 23.59375 -9.40625 C 23.59375 -7.414062 23.132812 -5.675781 22.21875 -4.1875 C 21.3125 -2.707031 20.019531 -1.554688 18.34375 -0.734375 C 16.664062 0.0859375 14.671875 0.5 12.359375 0.5 C 10.054688 0.5 8.054688 0.0859375 6.359375 -0.734375 C 4.671875 -1.554688 3.367188 -2.707031 2.453125 -4.1875 C 1.546875 -5.675781 1.09375 -7.414062 1.09375 -9.40625 C 1.09375 -11.394531 1.546875 -13.128906 2.453125 -14.609375 C 3.367188 -16.097656 4.671875 -17.25 6.359375 -18.0625 C 8.054688 -18.882812 10.054688 -19.296875 12.359375 -19.296875 Z M 12.359375 -15.4375 C 10.472656 -15.4375 8.984375 -14.898438 7.890625 -13.828125 C 6.804688 -12.765625 6.265625 -11.289062 6.265625 -9.40625 C 6.265625 -7.519531 6.804688 -6.039062 7.890625 -4.96875 C 8.984375 -3.90625 10.472656 -3.375 12.359375 -3.375 C 14.242188 -3.375 15.722656 -3.90625 16.796875 -4.96875 C 17.878906 -6.039062 18.421875 -7.519531 18.421875 -9.40625 C 18.421875 -11.300781 17.878906 -12.78125 16.796875 -13.84375 C 15.722656 -14.90625 14.242188 -15.4375 12.359375 -15.4375 Z M 12.359375 -15.4375 "/></g></g></g><g fill="#ffffff" fill-opacity="1"><g transform="translate(139.247141, 122.109594)"><g><path d="M 2.09375 -18.8125 L 6.8125 -18.8125 L 6.8125 -8.703125 C 6.8125 -6.867188 7.195312 -5.519531 7.96875 -4.65625 C 8.738281 -3.800781 9.992188 -3.375 11.734375 -3.375 C 12.972656 -3.375 13.957031 -3.582031 14.6875 -4 C 15.414062 -4.425781 15.929688 -5.019531 16.234375 -5.78125 C 16.535156 -6.550781 16.6875 -7.445312 16.6875 -8.46875 L 16.6875 -18.8125 L 21.40625 -18.8125 L 21.40625 -8.21875 C 21.40625 -5.34375 20.582031 -3.171875 18.9375 -1.703125 C 17.289062 -0.234375 14.890625 0.5 11.734375 0.5 C 8.578125 0.5 6.179688 -0.242188 4.546875 -1.734375 C 2.910156 -3.234375 2.09375 -5.398438 2.09375 -8.234375 Z M 2.09375 -18.8125 "/></g></g></g><g fill="#ffffff" fill-opacity="1"><g transform="translate(164.040273, 122.109594)"><g><path d="M 2.09375 -18.8125 L 7.90625 -18.8125 L 17.3125 -5.546875 L 17.3125 -18.8125 L 21.84375 -18.8125 L 21.84375 0 L 16.109375 0 L 6.625 -13.390625 L 6.625 0 L 2.09375 0 Z M 2.09375 -18.8125 "/></g></g></g><g fill="#ffffff" fill-opacity="1"><g transform="translate(189.273819, 122.109594)"><g><path d="M 2.09375 0 L 2.09375 -18.8125 L 11.703125 -18.8125 C 13.160156 -18.8125 14.523438 -18.632812 15.796875 -18.28125 C 17.078125 -17.9375 18.195312 -17.394531 19.15625 -16.65625 C 20.113281 -15.914062 20.863281 -14.945312 21.40625 -13.75 C 21.957031 -12.5625 22.234375 -11.113281 22.234375 -9.40625 C 22.234375 -7.59375 21.9375 -6.078125 21.34375 -4.859375 C 20.757812 -3.640625 19.941406 -2.675781 18.890625 -1.96875 C 17.835938 -1.257812 16.601562 -0.753906 15.1875 -0.453125 C 13.769531 -0.148438 12.238281 0 10.59375 0 Z M 6.8125 -14.953125 L 6.8125 -3.859375 L 10.484375 -3.859375 C 12.660156 -3.859375 14.300781 -4.34375 15.40625 -5.3125 C 16.519531 -6.28125 17.078125 -7.671875 17.078125 -9.484375 C 17.078125 -13.128906 14.878906 -14.953125 10.484375 -14.953125 Z M 6.8125 -14.953125 "/></g></g></g><g fill="#ffffff" fill-opacity="1"><g transform="translate(213.885599, 122.109594)"><g><path d="M 20.203125 -13.03125 L 15.515625 -13.03125 C 15.304688 -14.894531 13.769531 -15.828125 10.90625 -15.828125 C 9.539062 -15.828125 8.503906 -15.628906 7.796875 -15.234375 C 7.085938 -14.847656 6.734375 -14.328125 6.734375 -13.671875 C 6.734375 -12.984375 7.03125 -12.53125 7.625 -12.3125 C 8.21875 -12.101562 9.191406 -11.925781 10.546875 -11.78125 L 14.046875 -11.421875 C 16.410156 -11.160156 18.164062 -10.585938 19.3125 -9.703125 C 20.457031 -8.828125 21.03125 -7.5625 21.03125 -5.90625 C 21.03125 -3.851562 20.1875 -2.269531 18.5 -1.15625 C 16.820312 -0.0507812 14.332031 0.5 11.03125 0.5 C 7.851562 0.5 5.441406 -0.078125 3.796875 -1.234375 C 2.148438 -2.398438 1.328125 -4.15625 1.328125 -6.5 L 6.140625 -6.5 C 6.117188 -4.21875 7.941406 -3.078125 11.609375 -3.078125 C 13.003906 -3.078125 14.066406 -3.28125 14.796875 -3.6875 C 15.535156 -4.09375 15.90625 -4.660156 15.90625 -5.390625 C 15.90625 -6.117188 15.609375 -6.609375 15.015625 -6.859375 C 14.421875 -7.117188 13.484375 -7.3125 12.203125 -7.4375 L 8.890625 -7.765625 C 6.484375 -8.015625 4.691406 -8.5625 3.515625 -9.40625 C 2.347656 -10.25 1.765625 -11.46875 1.765625 -13.0625 C 1.765625 -14.226562 2.125 -15.28125 2.84375 -16.21875 C 3.570312 -17.164062 4.613281 -17.914062 5.96875 -18.46875 C 7.320312 -19.019531 8.941406 -19.296875 10.828125 -19.296875 C 13.835938 -19.296875 16.148438 -18.742188 17.765625 -17.640625 C 19.390625 -16.535156 20.203125 -15 20.203125 -13.03125 Z M 20.203125 -13.03125 "/></g></g></g><g fill="#ffffff" fill-opacity="1"><g transform="translate(62.30492, 143.688392)"><g><path d="M 9.0625 -0.234375 L 9.078125 -0.140625 C 9.078125 -0.046875 9.015625 0 8.890625 0 L 8.265625 0 C 8.203125 0 8.148438 -0.0078125 8.109375 -0.03125 C 8.078125 -0.0625 8.050781 -0.109375 8.03125 -0.171875 L 7.078125 -2.140625 L 1.96875 -2.140625 L 1.015625 -0.171875 C 0.960938 -0.0546875 0.878906 0 0.765625 0 L 0.125 0 C 0.0195312 0 -0.03125 -0.046875 -0.03125 -0.140625 C -0.03125 -0.160156 -0.0234375 -0.195312 -0.015625 -0.25 L 3.890625 -8.21875 C 3.921875 -8.269531 3.953125 -8.304688 3.984375 -8.328125 C 4.023438 -8.347656 4.078125 -8.359375 4.140625 -8.359375 L 4.890625 -8.359375 C 4.953125 -8.359375 5.003906 -8.347656 5.046875 -8.328125 C 5.085938 -8.304688 5.125 -8.269531 5.15625 -8.21875 Z M 4.546875 -7.296875 L 4.5 -7.296875 L 3.484375 -5.21875 L 2.421875 -3.046875 L 6.625 -3.046875 L 5.5625 -5.21875 Z M 4.546875 -7.296875 "/></g></g></g><g fill="#ffffff" fill-opacity="1"><g transform="translate(78.320086, 143.688392)"><g><path d="M 8.40625 -8.359375 C 8.507812 -8.359375 8.5625 -8.3125 8.5625 -8.21875 L 8.5625 -7.578125 C 8.5625 -7.472656 8.507812 -7.421875 8.40625 -7.421875 L 4.90625 -7.421875 L 4.90625 -0.15625 C 4.90625 -0.0507812 4.851562 0 4.75 0 L 4.078125 0 C 3.960938 0 3.90625 -0.0507812 3.90625 -0.15625 L 3.90625 -7.421875 L 0.421875 -7.421875 C 0.316406 -7.421875 0.265625 -7.472656 0.265625 -7.578125 L 0.265625 -8.21875 C 0.265625 -8.3125 0.316406 -8.359375 0.421875 -8.359375 Z M 8.40625 -8.359375 "/></g></g></g><g fill="#ffffff" fill-opacity="1"><g transform="translate(94.096037, 143.688392)"><g><path d="M 9.34375 -8.359375 C 9.445312 -8.359375 9.5 -8.3125 9.5 -8.21875 L 9.5 -0.15625 C 9.5 -0.0507812 9.445312 0 9.34375 0 L 8.671875 0 C 8.566406 0 8.515625 -0.0507812 8.515625 -0.15625 L 8.515625 -3.734375 L 2.375 -3.734375 L 2.375 -0.15625 C 2.375 -0.0507812 2.320312 0 2.21875 0 L 1.53125 0 C 1.425781 0 1.375 -0.0507812 1.375 -0.15625 L 1.375 -8.21875 C 1.375 -8.3125 1.425781 -8.359375 1.53125 -8.359375 L 2.21875 -8.359375 C 2.320312 -8.359375 2.375 -8.3125 2.375 -8.21875 L 2.375 -4.671875 L 8.515625 -4.671875 L 8.515625 -8.21875 C 8.515625 -8.3125 8.566406 -8.359375 8.671875 -8.359375 Z M 9.34375 -8.359375 "/></g></g></g><g fill="#ffffff" fill-opacity="1"><g transform="translate(111.941166, 143.688392)"><g><path d="M 1.53125 0 C 1.425781 0 1.375 -0.0507812 1.375 -0.15625 L 1.375 -8.21875 C 1.375 -8.3125 1.425781 -8.359375 1.53125 -8.359375 L 2.21875 -8.359375 C 2.320312 -8.359375 2.375 -8.3125 2.375 -8.21875 L 2.375 -0.9375 L 7.953125 -0.9375 C 8.054688 -0.9375 8.109375 -0.882812 8.109375 -0.78125 L 8.109375 -0.15625 C 8.109375 -0.0507812 8.054688 0 7.953125 0 Z M 1.53125 0 "/></g></g></g><g fill="#ffffff" fill-opacity="1"><g transform="translate(127.322416, 143.688392)"><g><path d="M 8.3125 -0.890625 C 8.414062 -0.890625 8.46875 -0.835938 8.46875 -0.734375 L 8.46875 -0.15625 C 8.46875 -0.0507812 8.414062 0 8.3125 0 L 1.53125 0 C 1.425781 0 1.375 -0.0507812 1.375 -0.15625 L 1.375 -8.21875 C 1.375 -8.3125 1.425781 -8.359375 1.53125 -8.359375 L 8.203125 -8.359375 C 8.304688 -8.359375 8.359375 -8.3125 8.359375 -8.21875 L 8.359375 -7.65625 C 8.359375 -7.539062 8.304688 -7.484375 8.203125 -7.484375 L 2.375 -7.484375 L 2.375 -4.65625 L 6.859375 -4.65625 C 6.972656 -4.65625 7.03125 -4.601562 7.03125 -4.5 L 7.03125 -3.9375 C 7.03125 -3.832031 6.972656 -3.78125 6.859375 -3.78125 L 2.375 -3.78125 L 2.375 -0.890625 Z M 8.3125 -0.890625 "/></g></g></g><g fill="#ffffff" fill-opacity="1"><g transform="translate(143.493061, 143.688392)"><g><path d="M 8.40625 -8.359375 C 8.507812 -8.359375 8.5625 -8.3125 8.5625 -8.21875 L 8.5625 -7.578125 C 8.5625 -7.472656 8.507812 -7.421875 8.40625 -7.421875 L 4.90625 -7.421875 L 4.90625 -0.15625 C 4.90625 -0.0507812 4.851562 0 4.75 0 L 4.078125 0 C 3.960938 0 3.90625 -0.0507812 3.90625 -0.15625 L 3.90625 -7.421875 L 0.421875 -7.421875 C 0.316406 -7.421875 0.265625 -7.472656 0.265625 -7.578125 L 0.265625 -8.21875 C 0.265625 -8.3125 0.316406 -8.359375 0.421875 -8.359375 Z M 8.40625 -8.359375 "/></g></g></g><g fill="#ffffff" fill-opacity="1"><g transform="translate(159.269009, 143.688392)"><g><path d="M 4.40625 -7.484375 L 4.40625 -0.890625 L 6.875 -0.890625 C 6.976562 -0.890625 7.03125 -0.835938 7.03125 -0.734375 L 7.03125 -0.15625 C 7.03125 -0.0507812 6.976562 0 6.875 0 L 0.9375 0 C 0.832031 0 0.78125 -0.0507812 0.78125 -0.15625 L 0.78125 -0.734375 C 0.78125 -0.835938 0.832031 -0.890625 0.9375 -0.890625 L 3.40625 -0.890625 L 3.40625 -7.484375 L 0.9375 -7.484375 C 0.832031 -7.484375 0.78125 -7.539062 0.78125 -7.65625 L 0.78125 -8.21875 C 0.78125 -8.3125 0.832031 -8.359375 0.9375 -8.359375 L 6.875 -8.359375 C 6.976562 -8.359375 7.03125 -8.3125 7.03125 -8.21875 L 7.03125 -7.65625 C 7.03125 -7.539062 6.976562 -7.484375 6.875 -7.484375 Z M 4.40625 -7.484375 "/></g></g></g><g fill="#ffffff" fill-opacity="1"><g transform="translate(174.028312, 143.688392)"><g><path d="M 3.375 0.03125 C 2.6875 0.03125 2.164062 -0.144531 1.8125 -0.5 C 1.46875 -0.851562 1.296875 -1.375 1.296875 -2.0625 L 1.296875 -6.296875 C 1.296875 -6.992188 1.46875 -7.519531 1.8125 -7.875 C 2.164062 -8.226562 2.6875 -8.40625 3.375 -8.40625 L 7.34375 -8.40625 C 8.039062 -8.40625 8.566406 -8.226562 8.921875 -7.875 C 9.273438 -7.519531 9.453125 -6.992188 9.453125 -6.296875 L 9.453125 -5.78125 C 9.453125 -5.675781 9.394531 -5.625 9.28125 -5.625 L 8.609375 -5.625 C 8.503906 -5.625 8.453125 -5.675781 8.453125 -5.78125 L 8.453125 -6.265625 C 8.453125 -6.691406 8.351562 -7.003906 8.15625 -7.203125 C 7.957031 -7.398438 7.644531 -7.5 7.21875 -7.5 L 3.515625 -7.5 C 3.085938 -7.5 2.773438 -7.394531 2.578125 -7.1875 C 2.378906 -6.988281 2.28125 -6.679688 2.28125 -6.265625 L 2.28125 -2.109375 C 2.28125 -1.679688 2.378906 -1.367188 2.578125 -1.171875 C 2.773438 -0.972656 3.085938 -0.875 3.515625 -0.875 L 7.21875 -0.875 C 7.644531 -0.875 7.957031 -0.972656 8.15625 -1.171875 C 8.351562 -1.367188 8.453125 -1.679688 8.453125 -2.109375 L 8.453125 -2.59375 C 8.453125 -2.707031 8.503906 -2.765625 8.609375 -2.765625 L 9.28125 -2.765625 C 9.394531 -2.765625 9.453125 -2.707031 9.453125 -2.59375 L 9.453125 -2.0625 C 9.453125 -1.375 9.273438 -0.851562 8.921875 -0.5 C 8.566406 -0.144531 8.039062 0.03125 7.34375 0.03125 Z M 3.375 0.03125 "/></g></g></g><g fill="#ffffff" fill-opacity="1"><g transform="translate(191.63423, 143.688392)"><g><path d="M 3.0625 0.03125 C 2.394531 0.03125 1.90625 -0.117188 1.59375 -0.421875 C 1.289062 -0.734375 1.140625 -1.226562 1.140625 -1.90625 L 1.140625 -2.4375 C 1.140625 -2.550781 1.191406 -2.609375 1.296875 -2.609375 L 1.96875 -2.609375 C 2.082031 -2.609375 2.140625 -2.550781 2.140625 -2.4375 L 2.140625 -1.90625 C 2.140625 -1.539062 2.222656 -1.273438 2.390625 -1.109375 C 2.554688 -0.941406 2.816406 -0.859375 3.171875 -0.859375 L 6.828125 -0.859375 C 7.191406 -0.859375 7.457031 -0.941406 7.625 -1.109375 C 7.800781 -1.273438 7.890625 -1.539062 7.890625 -1.90625 L 7.890625 -2.671875 C 7.890625 -3.035156 7.800781 -3.300781 7.625 -3.46875 C 7.457031 -3.632812 7.191406 -3.71875 6.828125 -3.71875 L 3.234375 -3.71875 C 2.566406 -3.71875 2.078125 -3.867188 1.765625 -4.171875 C 1.460938 -4.484375 1.3125 -4.972656 1.3125 -5.640625 L 1.3125 -6.484375 C 1.3125 -7.160156 1.460938 -7.648438 1.765625 -7.953125 C 2.078125 -8.253906 2.566406 -8.40625 3.234375 -8.40625 L 6.53125 -8.40625 C 7.207031 -8.40625 7.695312 -8.253906 8 -7.953125 C 8.3125 -7.648438 8.46875 -7.160156 8.46875 -6.484375 L 8.46875 -5.96875 C 8.46875 -5.863281 8.410156 -5.8125 8.296875 -5.8125 L 7.625 -5.8125 C 7.519531 -5.8125 7.46875 -5.863281 7.46875 -5.96875 L 7.46875 -6.46875 C 7.46875 -6.832031 7.378906 -7.097656 7.203125 -7.265625 C 7.035156 -7.429688 6.769531 -7.515625 6.40625 -7.515625 L 3.359375 -7.515625 C 3.003906 -7.515625 2.738281 -7.429688 2.5625 -7.265625 C 2.394531 -7.097656 2.3125 -6.832031 2.3125 -6.46875 L 2.3125 -5.65625 C 2.3125 -5.289062 2.394531 -5.023438 2.5625 -4.859375 C 2.738281 -4.691406 3.003906 -4.609375 3.359375 -4.609375 L 6.9375 -4.609375 C 7.613281 -4.609375 8.101562 -4.453125 8.40625 -4.140625 C 8.71875 -3.835938 8.875 -3.347656 8.875 -2.671875 L 8.875 -1.90625 C 8.875 -1.226562 8.71875 -0.734375 8.40625 -0.421875 C 8.101562 -0.117188 7.613281 0.03125 6.9375 0.03125 Z M 3.0625 0.03125 "/></g></g></g></svg>